<?xml version="1.0" encoding="utf-8"?>
<!-- Generator: Adobe Illustrator 21.0.0, SVG Export Plug-In . SVG Version: 6.00 Build 0)  -->
<svg version="1.1" id="Layer_1" xmlns="http://www.w3.org/2000/svg" xmlns:xlink="http://www.w3.org/1999/xlink" x="0px" y="0px"
	 viewBox="0 0 100 80" style="enable-background:new 0 0 100 80;" xml:space="preserve">
<style type="text/css">
	.st0{fill:#F7E5A6;}
	.st1{fill:#FEB856;}
	.st2{fill:#FFC299;}
	.st3{fill:#F7E5A6;stroke:#000000;stroke-linecap:round;stroke-linejoin:round;}
	.st4{fill:#FEB856;stroke:#000000;stroke-linecap:round;stroke-linejoin:round;}
	.st5{fill:#FFFFFF;stroke:#000000;stroke-miterlimit:10;}
	.st6{fill:#FEB856;stroke:#000000;stroke-miterlimit:10;}
	.st7{fill:none;stroke:#A5C73A;}
	.st8{fill:#AFAFAF;}
</style>
<g id="Слой_1-2">
	<path class="st0" d="M35.8,74l0-0.4c0-0.2-0.1-1.5,2.5-1.9c1.3-0.2,1.5-1.9,1.7-4.5c0-0.5,0-0.9,0.1-1.3c0.2-3.1,0.4-3.1,0.8-3.2
		h18.1c0.5,0,0.6,0.1,0.9,3.2c0,0.4,0.1,0.9,0.1,1.3c0.1,2.6,0.3,4.3,1.7,4.5c2.6,0.4,2.5,1.7,2.5,1.9l0,0.4L35.8,74z"/>
	<path d="M58.8,63.2c0,0,0.2,0,0.4,2.7c0.2,2.7,0,6,2.2,6.3l2,1.3H36.2c0,0-0.1-1,2-1.3c2.1-0.3,1.9-3.6,2.2-6.3l0.4-2.7L58.8,63.2
		 M58.8,62.2H40.7c-0.9,0.1-1,0.8-1.3,3.6c0,0.4-0.1,0.9-0.1,1.3c-0.1,2.3-0.3,3.9-1.2,4c-3,0.5-2.9,2.2-2.9,2.4l0.1,0.9h29l0.1-0.9
		c0-0.2,0.1-1.9-2.9-2.4c-1-0.2-1.1-1.8-1.2-4c0-0.5,0-0.9-0.1-1.3c-0.2-2.8-0.4-3.5-1.3-3.6L58.8,62.2z"/>
	<path class="st1" d="M59.2,65.9c-0.2-2.7-0.4-2.7-0.4-2.7h-18c0,0-0.2,0-0.4,2.7H59.2z"/>
	<path class="st2" d="M36.2,73.2c0,0.1-0.1,0.2-0.1,0.3h27.2c0-0.1,0-0.2-0.1-0.3H36.2z"/>
	<path class="st3" d="M10.9,5.5h77.8c1.3,0,2.4,1.1,2.4,2.4v53.3c0,1.3-1.1,2.4-2.4,2.4H10.9c-1.3,0-2.4-1.1-2.4-2.4V7.9
		C8.5,6.6,9.6,5.5,10.9,5.5z"/>
	<path class="st4" d="M8.5,53.9V7.8c0-1.3,1.1-2.4,2.4-2.3h77.8c1.3,0,2.4,1,2.4,2.3v46.1H8.5z"/>
	<path class="st5" d="M12.2,9h75.2v41.3H12.2L12.2,9z"/>
	<circle class="st6" cx="49.8" cy="58.3" r="1.8"/>
	<path class="st7" d="M33.3,22.2l2.1,1.8l2.4-3.1"/>
	<path class="st8" d="M41.4,23h24.5c0.2,0,0.4,0.2,0.4,0.4v0c0,0.2-0.2,0.4-0.4,0.4H41.4c-0.2,0-0.4-0.2-0.4-0.4v0
		C41,23.2,41.2,23,41.4,23z"/>
	<path class="st7" d="M33.3,29.6l2.1,1.8l2.4-3.1"/>
	<path class="st8" d="M41.4,30.4h18.1c0.2,0,0.4,0.2,0.4,0.4v0c0,0.2-0.2,0.4-0.4,0.4H41.4c-0.2,0-0.4-0.2-0.4-0.4v0
		C41,30.5,41.2,30.4,41.4,30.4z"/>
	<path class="st7" d="M33.3,36.9l2.1,1.8l2.4-3.1"/>
	<path class="st8" d="M41.4,37.7h22c0.2,0,0.4,0.2,0.4,0.4l0,0c0,0.2-0.2,0.4-0.4,0.4h-22c-0.2,0-0.4-0.2-0.4-0.4l0,0
		C41,37.9,41.2,37.7,41.4,37.7z"/>
</g>
</svg>
