<?xml version="1.0" encoding="utf-8"?>
<!-- Generator: Adobe Illustrator 21.0.0, SVG Export Plug-In . SVG Version: 6.00 Build 0)  -->
<svg version="1.1" id="Layer_1" xmlns="http://www.w3.org/2000/svg" xmlns:xlink="http://www.w3.org/1999/xlink" x="0px" y="0px"
	 viewBox="0 0 100 80" style="enable-background:new 0 0 100 80;" xml:space="preserve">
<style type="text/css">
	.st0{fill:#F7E5A6;stroke:#000000;stroke-linecap:round;stroke-linejoin:round;}
	.st1{fill:#CAD9D4;}
	.st2{fill:#DF9466;}
	.st3{fill:#FFFFFF;}
	.st4{fill:#DAE96D;}
	.st5{fill:#B8C54F;}
	.st6{fill:#949F41;}
	.st7{fill:#D78C5D;}
	.st8{fill:#FE6067;}
</style>
<g id="Слой_1-2">
	<path d="M64.7,65.8H4c-0.2,0.1-0.5-0.1-0.6-0.3C3.3,65.3,3.5,65,3.7,65c0.1,0,0.2,0,0.3,0h60.7c0.3,0,0.5,0.2,0.5,0.5
		C65.1,65.7,64.9,65.9,64.7,65.8L64.7,65.8z M95.7,65.8H66.4c-0.3,0-0.5-0.2-0.5-0.5c0-0.3,0.2-0.5,0.5-0.5c0,0,0,0,0,0h29.3
		c0.3,0,0.5,0.2,0.5,0.5C96.2,65.6,96,65.8,95.7,65.8z M45.9,70.1H25c-0.3,0-0.5-0.2-0.5-0.5c0-0.3,0.2-0.5,0.5-0.5h21
		c0.3,0,0.5,0.2,0.5,0.5C46.4,69.9,46.2,70.1,45.9,70.1z M90.5,72.7H55c-0.3,0-0.5-0.2-0.5-0.5c0-0.3,0.2-0.5,0.5-0.5h35.5
		c0.3,0,0.5,0.2,0.5,0.5C91,72.5,90.8,72.7,90.5,72.7z M21.9,70.1H21c-0.3,0-0.5-0.2-0.5-0.5c0-0.3,0.2-0.5,0.5-0.5h0.9
		c0.3,0,0.5,0.2,0.5,0.5C22.4,69.9,22.2,70.1,21.9,70.1z M5.8,70.1h3.3c0.3,0,0.5-0.2,0.5-0.5c0-0.3-0.2-0.5-0.5-0.5c0,0,0,0,0,0
		H5.8c-0.3,0-0.5,0.2-0.5,0.5C5.4,69.9,5.6,70.1,5.8,70.1C5.8,70.1,5.8,70.1,5.8,70.1z"/>
	<path class="st0" d="M9.7,19.8h80.6v45.6H9.7L9.7,19.8z"/>
	<path class="st1" d="M13.1,23.4h27.7V52H13.1V23.4z"/>
	<path d="M41,52.8H12.8c-0.3,0-0.5-0.2-0.5-0.5V23.1c0-0.3,0.2-0.5,0.5-0.5l0,0H41c0.3,0,0.5,0.2,0.5,0.5v29.2
		C41.5,52.6,41.3,52.8,41,52.8z M13.3,51.8h27.3V23.5H13.2L13.3,51.8z"/>
	<path class="st1" d="M58.9,23.1h28.2v29.2H58.9V23.1z"/>
	<path d="M87.2,52.8H58.9c-0.3,0-0.5-0.2-0.5-0.5V23.1c0-0.3,0.2-0.5,0.5-0.5h28.2c0.3,0,0.5,0.2,0.5,0.5v29.2
		C87.6,52.6,87.4,52.8,87.2,52.8z M59.4,51.8h27.3V23.5H59.4V51.8z"/>
	<path class="st2" d="M42.6,31.1h14.7v34.3H42.6V31.1z"/>
	<path d="M57.4,65.8H42.6c-0.3,0-0.5-0.2-0.5-0.5V31.1c0-0.3,0.2-0.5,0.5-0.5h14.7c0.3,0,0.5,0.2,0.5,0.5v34.3
		C57.8,65.6,57.6,65.8,57.4,65.8z M43.1,65h13.8V31.6H43.1V65z"/>
	<path class="st1" d="M44.7,33.5h10.7v23.7H44.7V33.5z"/>
	<path d="M55.3,57.7H44.7c-0.3,0-0.5-0.2-0.5-0.5V33.5c0-0.3,0.2-0.5,0.5-0.5h10.7c0.3,0,0.5,0.2,0.5,0.5v23.7
		C55.8,57.5,55.6,57.7,55.3,57.7z M45.1,56.8h9.7V33.9h-9.7V56.8z"/>
	<path class="st2" d="M98.6,24.8v5.1c0,0.7-1,1.3-2.3,1.3s-2.3-0.6-2.3-1.3v-5.1H98.6z"/>
	<path class="st3" d="M93.9,24.8v5.1c0-0.7-1-1.3-2.3-1.3s-2.3,0.6-2.3,1.3v-5.1H93.9z"/>
	<path class="st2" d="M88.5,30.9c-0.5,0.2-1,0.3-1.5,0.3c-1.3,0-2.3-0.6-2.3-1.3v-5.1h4.6v5.1c0,0.2-0.1,0.4-0.3,0.6
		c-0.1,0.1-0.2,0.1-0.2,0.2C88.7,30.8,88.6,30.8,88.5,30.9z"/>
	<path class="st3" d="M80.1,29.9v-5.1h4.6v5.1c0-0.4-0.3-0.7-0.8-1l-0.4-0.1l-0.4-0.1h-0.7c-0.3,0-0.7,0-1,0.1
		c-0.3,0.1-0.5,0.2-0.8,0.3c-0.1,0.1-0.2,0.1-0.2,0.2C80.2,29.5,80.1,29.7,80.1,29.9z"/>
	<path class="st2" d="M80.1,29.9c0,0.7-1,1.3-2.3,1.3c-0.4,0-0.7,0-1.1-0.1l-0.4-0.1c-0.2-0.1-0.3-0.2-0.4-0.3
		c-0.2-0.2-0.4-0.4-0.4-0.7v-5.1h4.6V29.9L80.1,29.9z M90.3,19.8l8.2,5h-4.6l-7.4-5H90.3z"/>
	<path class="st3" d="M86.5,19.8l7.4,5h-4.6l-6.7-5H86.5z"/>
	<path class="st2" d="M82.6,19.8l6.7,5h-4.6l-5.9-5H82.6z"/>
	<path class="st3" d="M78.8,19.8l5.9,5h-4.6l-5.1-5H78.8z"/>
	<path class="st2" d="M75,19.8l5.1,5h-4.6l-4.3-5C71.1,19.8,75,19.8,75,19.8z"/>
	<path class="st3" d="M70.9,29.6c0,0.1,0,0.2,0,0.2v-5.1h4.6v5.1c0-0.4-0.3-0.7-0.7-0.9c-0.5-0.3-1.1-0.4-1.6-0.4
		c-0.6,0-1.2,0.1-1.8,0.5c-0.1,0.1-0.2,0.2-0.3,0.3C71,29.5,70.9,29.6,70.9,29.6z M71.1,19.8l4.3,5h-4.6l-3.5-5H71.1z"/>
	<path class="st2" d="M70.8,29.9c0,0.7-1,1.3-2.3,1.3c-1.3,0-2.3-0.6-2.3-1.3v-5.1h4.6V29.9L70.8,29.9z M67.3,19.8l3.5,5h-4.6
		l-2.7-5H67.3z"/>
	<path class="st3" d="M66.2,24.8v5.1c0-0.1,0-0.2,0-0.2c0-0.1-0.1-0.2-0.1-0.2c-0.1-0.1-0.2-0.2-0.3-0.3L65.6,29
		c-0.2-0.1-0.5-0.2-0.7-0.3c-0.3-0.1-0.6-0.1-0.9-0.1c-0.6,0-1.1,0.1-1.6,0.4c-0.4,0.1-0.6,0.5-0.7,0.9v-5.1H66.2z M63.4,19.8l2.7,5
		h-4.6l-2-5C59.6,19.8,63.4,19.8,63.4,19.8z"/>
	<path class="st2" d="M43.1,29.9c0,0.3-0.2,0.5-0.4,0.7c-0.1,0.1-0.2,0.1-0.3,0.2l-0.2,0.1c-0.5,0.2-1,0.3-1.5,0.3
		c-1.3,0-2.3-0.6-2.3-1.3v-5.1h4.6L43.1,29.9z M44.2,19.8l-1.2,5h-4.6l2-5H44.2z M13.5,19.8l-7.4,5H1.5l8.2-5
		C9.7,19.8,13.5,19.8,13.5,19.8z M6.1,24.8v5.1c0,0.7-1,1.3-2.3,1.3c-0.5,0-1-0.1-1.5-0.3c-0.1,0-0.2-0.1-0.3-0.2H1.9l-0.2-0.1
		c-0.2-0.2-0.3-0.4-0.3-0.6v-5.2L6.1,24.8z"/>
	<path class="st3" d="M32.7,19.8l-3.5,5h-4.6l4.3-5C28.9,19.8,32.7,19.8,32.7,19.8z M29.2,24.8v5.1c0-0.3-0.2-0.6-0.5-0.7L28.5,29
		c-0.5-0.3-1.1-0.4-1.7-0.4c-0.7,0-1.4,0.2-1.9,0.6c-0.2,0.1-0.3,0.3-0.4,0.6c0,0,0,0.1,0,0.1v-5.1L29.2,24.8z"/>
	<path d="M89.3,25.2h-4.6c-0.3,0-0.5-0.2-0.5-0.5c0-0.3,0.2-0.5,0.5-0.5h4.6c0.3,0,0.5,0.2,0.5,0.5C89.8,25,89.6,25.2,89.3,25.2z
		 M70.8,25.2h-4.6c-0.3,0-0.5-0.2-0.5-0.5c0-0.3,0.2-0.5,0.5-0.5h4.6c0.3,0,0.5,0.2,0.5,0.5C71.3,25,71.1,25.2,70.8,25.2z
		 M29.2,25.2h-4.6c-0.3,0-0.5-0.2-0.5-0.5c0-0.3,0.2-0.5,0.5-0.5h4.6c0.3,0,0.5,0.2,0.5,0.5C29.7,25,29.5,25.2,29.2,25.2z
		 M43.1,25.2h-4.6c-0.3,0-0.5-0.2-0.5-0.5c0-0.3,0.2-0.5,0.5-0.5h4.6c0.3,0,0.5,0.2,0.5,0.5C43.5,25,43.3,25.2,43.1,25.2z"/>
	<path class="st2" d="M61.6,29.9c0,0.4-0.3,0.7-0.8,1L60.4,31l-0.4,0.1c-0.2,0-0.5,0.1-0.7,0.1c-0.4,0-0.9-0.1-1.3-0.2
		c-0.1,0-0.2-0.1-0.3-0.1l-0.1-0.1c-0.1-0.1-0.2-0.1-0.2-0.2c-0.2-0.2-0.3-0.4-0.3-0.6v-5.2h4.6L61.6,29.9L61.6,29.9z"/>
	<path class="st3" d="M52.5,29.4c-0.1,0.1-0.2,0.3-0.2,0.5v-5.1h4.6v5.1c0-0.7-1-1.3-2.3-1.3c-0.5,0-1,0.1-1.5,0.3
		C52.9,29,52.7,29.2,52.5,29.4z"/>
	<path class="st2" d="M52.3,29.9c0,0.7-1,1.3-2.3,1.3c-0.5,0-1-0.1-1.5-0.3c-0.1,0-0.2-0.1-0.3-0.2h-0.1L48,30.5
		c-0.2-0.2-0.3-0.4-0.3-0.6v-5.2h4.6V29.9z"/>
	<path class="st3" d="M47.7,24.8v5.1c0-0.7-1-1.3-2.3-1.3s-2.3,0.6-2.3,1.3v-5.1H47.7z M38.4,24.8v5.1c0-0.3-0.2-0.5-0.4-0.7
		c-0.1-0.1-0.3-0.2-0.4-0.3c-0.5-0.2-1-0.3-1.5-0.3h-0.2c-0.2,0-0.4,0-0.7,0.1c-0.3,0.1-0.5,0.1-0.7,0.3c-0.1,0.1-0.3,0.2-0.4,0.3
		c-0.1,0.1-0.1,0.1-0.2,0.2c-0.1,0.1-0.1,0.2-0.1,0.4v-5.1L38.4,24.8z"/>
	<path class="st2" d="M33.8,29.9c0,0.7-1,1.3-2.3,1.3c-0.4,0-0.7,0-1.1-0.1L30,30.9l-0.2-0.1c-0.4-0.1-0.6-0.5-0.7-0.9v-5.1h4.7
		L33.8,29.9z M24.6,29.9c0,0.7-1,1.3-2.3,1.3S20,30.6,20,29.9v-5.1h4.6V29.9z"/>
	<path class="st3" d="M20,24.8v5.1c0-0.2-0.1-0.3-0.2-0.5c-0.1-0.1-0.1-0.1-0.2-0.2c-0.1-0.1-0.3-0.2-0.4-0.3
		c-0.2-0.1-0.4-0.2-0.7-0.2c-0.3-0.1-0.5-0.1-0.8-0.1c-0.6,0-1.1,0.1-1.6,0.4c-0.4,0.1-0.6,0.5-0.7,0.9v-5.1L20,24.8z"/>
	<path class="st2" d="M15.3,24.8v5.1c0,0.3-0.2,0.5-0.4,0.7c-0.1,0.1-0.2,0.1-0.3,0.2l-0.2,0.1L14.1,31c-0.4,0.1-0.7,0.2-1.1,0.1
		h-0.5l-0.4-0.1L11.7,31c-0.2-0.1-0.3-0.1-0.5-0.2c-0.3-0.2-0.5-0.5-0.5-0.8v-5.1H15.3z"/>
	<path class="st3" d="M6.8,29c-0.4,0.1-0.6,0.5-0.7,0.9v-5.1h4.6v5.1c0-0.7-1-1.3-2.3-1.3c-0.4,0-0.7,0-1.1,0.1L7,28.9L6.8,29z"/>
	<path d="M52.3,30.4c-0.3,0-0.5-0.2-0.5-0.5c0-0.3,0.1-0.5,0.3-0.8c0.2-0.3,0.5-0.5,0.8-0.6c0.5-0.2,1.1-0.3,1.7-0.3
		c1.6,0,2.8,0.7,2.8,1.7c0,0.3-0.2,0.5-0.5,0.5c-0.3,0-0.5-0.2-0.5-0.5c0-0.3-0.7-0.8-1.9-0.8c-0.4,0-0.9,0.1-1.3,0.2
		c-0.2,0.1-0.4,0.2-0.5,0.3c-0.1,0.1-0.1,0.1-0.1,0.2C52.8,30.1,52.6,30.3,52.3,30.4C52.3,30.4,52.3,30.4,52.3,30.4z M56.9,30.4
		c-0.3,0-0.5-0.2-0.5-0.5v-5.1c0-0.3,0.2-0.5,0.5-0.5c0.3,0,0.5,0.2,0.5,0.5c0,0,0,0,0,0v5.1C57.4,30.1,57.2,30.4,56.9,30.4z
		 M52.3,30.4c-0.3,0-0.5-0.2-0.5-0.5v-5.1c0-0.3,0.2-0.5,0.5-0.5c0.3,0,0.5,0.2,0.5,0.5c0,0,0,0,0,0v5.1
		C52.8,30.1,52.6,30.4,52.3,30.4z M22.3,31.6c-1.6,0-2.8-0.7-2.8-1.7c0-0.3,0.2-0.5,0.5-0.5c0.3,0,0.5,0.2,0.5,0.5
		c0,0.3,0.7,0.8,1.9,0.8s1.9-0.5,1.9-0.8c0-0.3,0.2-0.5,0.5-0.5s0.5,0.2,0.5,0.5C25,30.9,23.9,31.6,22.3,31.6z M24.6,30.4
		c-0.3,0-0.5-0.2-0.5-0.5v-5.1c0-0.3,0.2-0.5,0.5-0.5c0.3,0,0.5,0.2,0.5,0.5l0,0v5.1C25,30.1,24.8,30.4,24.6,30.4z M50,31.6
		c-0.6,0-1.1-0.1-1.7-0.3c-0.1-0.1-0.3-0.1-0.4-0.2l-0.1,0c-0.1-0.1-0.2-0.1-0.2-0.2c-0.3-0.2-0.4-0.6-0.4-0.9
		c0-0.3,0.2-0.5,0.5-0.5c0.3,0,0.5,0.2,0.5,0.5c0,0.1,0.1,0.2,0.1,0.3l0.1,0.1h0.1l0.2,0.1c0.4,0.2,0.8,0.3,1.3,0.2
		c1.1,0,1.9-0.5,1.9-0.8c0-0.3,0.2-0.5,0.5-0.5c0.3,0,0.5,0.2,0.5,0.5c0,0,0,0,0,0C52.8,30.9,51.6,31.6,50,31.6z M24.6,30.4
		c-0.3,0-0.5-0.2-0.5-0.5c0-0.1,0-0.1,0-0.2c0.1-0.3,0.3-0.6,0.5-0.9c0.6-0.5,1.4-0.7,2.2-0.7c0.6,0,1.3,0.1,1.8,0.4l0.3,0.2
		c0.4,0.2,0.6,0.7,0.7,1.1c0,0.3-0.2,0.5-0.5,0.5c-0.3,0-0.5-0.2-0.5-0.5c0-0.2-0.2-0.3-0.3-0.4l-0.2-0.1c-0.4-0.2-0.9-0.3-1.4-0.3
		c-0.6,0-1.1,0.1-1.6,0.5c-0.1,0.1-0.2,0.2-0.2,0.3C25,30.1,24.8,30.3,24.6,30.4C24.6,30.4,24.6,30.4,24.6,30.4z M40.8,31.6
		c-1.6,0-2.8-0.7-2.8-1.7c0-0.3,0.2-0.5,0.5-0.5c0.3,0,0.5,0.2,0.5,0.5c0,0.3,0.7,0.8,1.9,0.8c0.4,0,0.9-0.1,1.3-0.2l0.1-0.1
		l0.2-0.1c0.1-0.1,0.2-0.2,0.2-0.3c0-1,1.2-1.7,2.8-1.7c0.6,0,1.3,0.1,1.9,0.4v-3.8c0-0.3,0.2-0.5,0.5-0.5c0.3,0,0.5,0.2,0.5,0.5
		c0,0,0,0,0,0v5.1c0,0.3-0.2,0.5-0.5,0.5c-0.3,0-0.5-0.2-0.5-0.5c0-0.3-0.7-0.8-1.9-0.8s-1.9,0.5-1.9,0.8c0,0.4-0.2,0.8-0.6,1.1
		c-0.1,0.1-0.2,0.2-0.3,0.2l-0.2,0.1C41.9,31.5,41.3,31.6,40.8,31.6z M43.1,30.4c-0.3,0-0.5-0.2-0.5-0.5v-5.1c0-0.3,0.2-0.5,0.5-0.5
		c0.3,0,0.5,0.2,0.5,0.5c0,0,0,0,0,0v5.1C43.5,30.1,43.3,30.4,43.1,30.4z M31.5,31.6c-0.4,0-0.8-0.1-1.2-0.2c-0.1,0-0.3-0.1-0.4-0.2
		l-0.2-0.1c-0.5-0.2-0.9-0.7-0.9-1.3v-5.1c0-0.3,0.2-0.5,0.5-0.5c0.3,0,0.5,0.2,0.5,0.5v5.1c0,0.2,0.2,0.3,0.4,0.5l0.1,0.1l0.3,0.1
		c0.3,0.1,0.7,0.1,1,0.1c1.1,0,1.9-0.5,1.9-0.8c0-0.2,0.1-0.4,0.2-0.6c0.1-0.1,0.2-0.2,0.2-0.3c0.2-0.1,0.3-0.3,0.5-0.4
		c0.3-0.1,0.6-0.2,0.8-0.3c0.2-0.1,0.5-0.1,0.7-0.1c0.7,0,1.3,0.1,1.9,0.3l0.2,0.1v-3.8c0-0.3,0.2-0.5,0.5-0.5
		c0.3,0,0.5,0.2,0.5,0.5c0,0,0,0,0,0v5.1c0,0.3-0.2,0.5-0.5,0.5c-0.3,0-0.5-0.2-0.5-0.5c0-0.1-0.1-0.3-0.2-0.3
		c-0.1-0.1-0.2-0.2-0.3-0.2c-0.5-0.2-1-0.3-1.5-0.2c-0.2,0-0.4,0-0.6,0.1c-0.2,0-0.4,0.1-0.6,0.2c-0.1,0.1-0.2,0.1-0.3,0.2
		c0,0-0.1,0.1-0.1,0.1c0,0,0,0.1,0,0.1C34.3,30.9,33.1,31.6,31.5,31.6z M33.8,30.4c-0.3,0-0.5-0.2-0.5-0.5v-5.1
		c0-0.3,0.2-0.5,0.5-0.5s0.5,0.2,0.5,0.5c0,0,0,0,0,0v5.1C34.3,30.1,34.1,30.4,33.8,30.4z M59.2,31.6c-0.5,0-1-0.1-1.5-0.2
		c-0.1,0-0.3-0.1-0.4-0.2l-0.2-0.1c-0.1-0.1-0.2-0.2-0.3-0.3c-0.3-0.2-0.4-0.6-0.4-0.9c0-0.3,0.2-0.5,0.5-0.5c0.3,0,0.5,0.2,0.5,0.5
		c0,0,0,0,0,0c0,0.1,0.1,0.2,0.1,0.3l0.2,0.1l0.1,0.1l0.3,0.1c0.6,0.2,1.2,0.2,1.7,0.1l0.4-0.1l0.3-0.1c0.3-0.2,0.6-0.4,0.6-0.6
		c0-0.3,0.2-0.5,0.5-0.5c0.3,0,0.5,0.2,0.5,0.5c-0.1,0.6-0.5,1.2-1.1,1.4c-0.1,0.1-0.3,0.1-0.4,0.2c-0.2,0-0.3,0.1-0.5,0.1
		C59.8,31.6,59.5,31.6,59.2,31.6z M87,31.6c-1.6,0-2.8-0.7-2.8-1.7c0-0.3,0.2-0.5,0.5-0.5c0.3,0,0.5,0.2,0.5,0.5c0,0,0,0,0,0
		c0,0.3,0.7,0.8,1.9,0.8c0.4,0,0.9-0.1,1.3-0.2l0.2-0.1l0.2-0.1c0.1-0.1,0.1-0.2,0.1-0.3c0-0.3,0.2-0.5,0.5-0.5
		c0.3,0,0.5,0.2,0.5,0.5c0,0.4-0.2,0.7-0.4,0.9c-0.1,0.1-0.2,0.2-0.3,0.3c-0.1,0.1-0.2,0.1-0.4,0.2C88.1,31.5,87.6,31.6,87,31.6z
		 M84.7,30.4c-0.3,0-0.5-0.2-0.5-0.5v-4.7h-4.2c-0.3,0-0.5-0.2-0.5-0.5s0.2-0.5,0.5-0.5h4.6c0.3,0,0.5,0.2,0.5,0.5v5.1
		C85.2,30.1,85,30.3,84.7,30.4C84.7,30.4,84.7,30.4,84.7,30.4z M96.2,31.6c-1.6,0-2.8-0.7-2.8-1.7c0-0.3-0.7-0.8-1.9-0.8
		s-1.8,0.5-1.9,0.8c0,0.2-0.2,0.4-0.5,0.4c-0.3,0-0.5-0.2-0.5-0.5v-5.1c0-0.3,0.2-0.5,0.5-0.5h9.2c0.3,0,0.5,0.2,0.5,0.5v5.1
		C99,30.9,97.8,31.6,96.2,31.6z M94.4,29.9c0,0.3,0.7,0.8,1.9,0.8s1.9-0.5,1.9-0.8v-4.7h-3.7L94.4,29.9z M89.8,25.2v3.4
		c1.2-0.6,2.5-0.6,3.7,0v-3.4L89.8,25.2z M68.5,31.6c-1.6,0-2.8-0.7-2.8-1.7c0-0.3,0.2-0.5,0.5-0.5c0.3,0,0.5,0.2,0.5,0.5
		c0,0,0,0,0,0c0,0.3,0.7,0.8,1.9,0.8s1.9-0.5,1.9-0.8c0-0.3,0.2-0.5,0.5-0.5c0.3,0,0.5,0.2,0.5,0.5C71.3,30.9,70.1,31.6,68.5,31.6z
		 M66.2,30.4c-0.3,0-0.5-0.2-0.5-0.5v-4.7H62v4.7c0,0.3-0.2,0.5-0.5,0.5c-0.3,0-0.5-0.2-0.5-0.5c0,0,0,0,0,0v-5.1
		c0-0.3,0.2-0.5,0.5-0.5h4.6c0.3,0,0.5,0.2,0.5,0.5v5.1C66.6,30.1,66.4,30.3,66.2,30.4z M77.7,31.6c-0.4,0-0.8-0.1-1.2-0.2
		c-0.1,0-0.3-0.1-0.4-0.2c-0.2-0.1-0.4-0.2-0.5-0.3c-0.3-0.2-0.6-0.6-0.6-1.1c0-0.2-0.2-0.3-0.4-0.5c-0.4-0.2-0.9-0.3-1.4-0.3
		c-0.5,0-1.1,0.1-1.5,0.4c-0.1,0.1-0.2,0.1-0.2,0.2c0,0-0.1,0.1-0.1,0.1c0,0,0,0.1,0,0.1c0,0.3-0.2,0.5-0.5,0.5s-0.5-0.2-0.5-0.5
		c0,0,0,0,0,0v-5.1c0-0.3,0.2-0.5,0.5-0.5h9.2c0.3,0,0.5,0.2,0.5,0.5v5.1C80.5,30.9,79.3,31.6,77.7,31.6z M75.9,29.9
		c0,0.1,0.1,0.3,0.2,0.3c0.1,0.1,0.2,0.2,0.3,0.2l0.3,0.1c0.3,0.1,0.7,0.1,1,0.1c1.1,0,1.9-0.5,1.9-0.8v-4.7h-3.7V29.9z M73.1,28.2
		c0.6,0,1.3,0.1,1.8,0.4v-3.4h-3.7v3.4C71.8,28.3,72.5,28.2,73.1,28.2z M84.7,30.4c-0.3,0-0.5-0.2-0.5-0.5c0-0.2-0.2-0.4-0.6-0.6
		l-0.3-0.1L83,29.2h-0.2c-0.4,0-0.9,0-1.3,0.1c-0.2,0.1-0.4,0.1-0.6,0.3l-0.2,0.1c-0.1,0.1-0.1,0.2-0.1,0.3c0,0.2-0.2,0.4-0.5,0.4
		c-0.2,0-0.4-0.2-0.4-0.5c0-0.3,0.2-0.7,0.4-0.9c0.1-0.1,0.2-0.2,0.3-0.3c0.3-0.2,0.6-0.3,0.9-0.4c0.5-0.2,1.1-0.2,1.6-0.2h0.2
		l0.5,0.1c0.1,0,0.3,0.1,0.4,0.2c0.6,0.2,1.1,0.7,1.1,1.4C85.1,30.1,84.9,30.3,84.7,30.4L84.7,30.4z M66.2,30.4
		c-0.3,0-0.5-0.2-0.5-0.5c0,0,0-0.1,0-0.1c0,0,0-0.1-0.1-0.1c-0.1-0.1-0.1-0.2-0.2-0.2l-0.1-0.1c-0.2-0.1-0.4-0.2-0.7-0.2
		c-0.7-0.2-1.5-0.1-2.2,0.2c-0.3,0.1-0.4,0.3-0.4,0.5c0,0.3-0.2,0.5-0.5,0.5s-0.5-0.2-0.5-0.5c0-0.6,0.4-1.1,0.9-1.3
		c0.6-0.3,1.2-0.4,1.9-0.4c0.3,0,0.7,0,1,0.1c0.3,0.1,0.6,0.2,0.8,0.3l0.2,0.1c0.2,0.1,0.3,0.2,0.5,0.4c0.1,0.1,0.2,0.2,0.2,0.3
		c0.1,0.1,0.1,0.3,0.1,0.4C66.6,30.1,66.4,30.3,66.2,30.4C66.2,30.4,66.2,30.4,66.2,30.4z M6.1,30.4c-0.3,0-0.5-0.2-0.5-0.5
		c0-0.6,0.4-1.1,0.9-1.3l0.2-0.1c0.1-0.1,0.3-0.1,0.4-0.2c0.4-0.1,0.8-0.2,1.2-0.2c1.6,0,2.8,0.7,2.8,1.7c0,0.2-0.2,0.5-0.4,0.5
		c-0.2,0-0.5-0.2-0.5-0.4c0-0.3-0.7-0.8-1.9-0.8c-0.3,0-0.7,0-1,0.1l-0.3,0.1L7,29.4c-0.3,0.1-0.4,0.3-0.4,0.5
		C6.5,30.1,6.3,30.3,6.1,30.4z M6.1,30.4c-0.3,0-0.5-0.2-0.5-0.5v-4.7H1.5C1.2,25.2,1,25,1,24.7s0.2-0.5,0.5-0.5h4.6
		c0.3,0,0.5,0.2,0.5,0.5l0,0v5.1C6.6,30.1,6.4,30.3,6.1,30.4C6.1,30.4,6.1,30.4,6.1,30.4z M20,30.4c-0.3,0-0.5-0.2-0.5-0.5v-5.1
		c0-0.3,0.2-0.5,0.5-0.5c0.3,0,0.5,0.2,0.5,0.5l0,0v5.1C20.4,30.1,20.2,30.4,20,30.4z M10.7,30.4c-0.3,0-0.5-0.2-0.5-0.5v-5.1
		c0-0.3,0.2-0.5,0.5-0.5c0.3,0,0.5,0.2,0.5,0.5l0,0v5.1C11.2,30.1,11,30.4,10.7,30.4z M15.3,30.4c-0.3,0-0.5-0.2-0.5-0.5v-5.1
		c0-0.3,0.2-0.5,0.5-0.5s0.5,0.2,0.5,0.5l0,0v5.1C15.8,30.1,15.6,30.4,15.3,30.4z M3.8,31.6c-0.6,0-1.1-0.1-1.7-0.3
		c-0.1-0.1-0.3-0.1-0.4-0.2l-0.1,0c-0.1-0.1-0.2-0.1-0.2-0.2C1.1,30.6,1,30.2,1,29.9v-5.1c0-0.3,0.2-0.5,0.5-0.5s0.5,0.2,0.5,0.5
		l0,0v5.1c0,0.1,0.1,0.2,0.1,0.3l0.1,0.1h0.1l0.2,0.1c0.4,0.2,0.8,0.3,1.3,0.2c1.1,0,1.9-0.5,1.9-0.8c0-0.3,0.2-0.5,0.5-0.5
		s0.5,0.2,0.5,0.5C6.5,30.9,5.3,31.6,3.8,31.6z M15.3,30.4c-0.3,0-0.5-0.2-0.5-0.5c0-0.6,0.4-1.1,0.9-1.3c0.6-0.3,1.2-0.4,1.8-0.4
		c0.3,0,0.6,0,0.9,0.1c0.3,0.1,0.5,0.1,0.8,0.2c0.2,0.1,0.4,0.2,0.5,0.3c0.1,0.1,0.2,0.2,0.3,0.3c0.2,0.2,0.3,0.5,0.3,0.8
		c0,0.2-0.2,0.5-0.4,0.5c-0.2,0-0.5-0.2-0.5-0.4c0-0.1,0-0.2-0.1-0.2c0-0.1-0.1-0.1-0.1-0.1c-0.1-0.1-0.2-0.2-0.3-0.2
		c-0.2-0.1-0.4-0.1-0.6-0.2c-0.7-0.1-1.5-0.1-2.1,0.2c-0.3,0.1-0.4,0.3-0.4,0.5C15.8,30.1,15.6,30.3,15.3,30.4
		C15.3,30.4,15.3,30.4,15.3,30.4z M13,31.6h-0.5L12,31.5l-0.4-0.1c-0.2-0.1-0.4-0.2-0.6-0.3c-0.4-0.2-0.7-0.7-0.7-1.2
		c0-0.3,0.2-0.5,0.5-0.5c0.3,0,0.5,0.2,0.5,0.5c0,0.1,0.1,0.3,0.3,0.4c0.1,0.1,0.3,0.1,0.4,0.2l0.3,0.1l0.4,0.1
		c0.5,0.1,0.9,0,1.4-0.1l0.3-0.1l0.1-0.1l0.2-0.1c0.1-0.1,0.2-0.2,0.2-0.3c0-0.3,0.2-0.5,0.5-0.5c0.3,0,0.5,0.2,0.5,0.5
		c0,0.4-0.2,0.8-0.6,1.1c-0.1,0.1-0.2,0.2-0.3,0.2l-0.2,0.1c-0.1,0.1-0.3,0.1-0.4,0.2C13.8,31.6,13.4,31.6,13,31.6z"/>
	<path class="st2" d="M59.6,19.8l2,5h-4.6l-1.2-5H59.6z"/>
	<path class="st3" d="M55.8,19.8l1.2,5h-4.6l-0.4-5C51.9,19.8,55.8,19.8,55.8,19.8z"/>
	<path class="st2" d="M51.9,19.8l0.4,5h-4.6l0.4-5H51.9z"/>
	<path class="st3" d="M48.1,19.8l-0.4,5h-4.6l1.2-5H48.1z M40.4,19.8l-2,5h-4.6l2.7-5C36.6,19.8,40.4,19.8,40.4,19.8z"/>
	<path class="st2" d="M36.6,19.8l-2.7,5h-4.6l3.5-5H36.6z M28.9,19.8l-4.3,5H20l5.1-5H28.9z"/>
	<path class="st3" d="M25.1,19.8l-5.1,5h-4.6l5.9-5C21.2,19.8,25.1,19.8,25.1,19.8z"/>
	<path class="st2" d="M21.2,19.8l-5.9,5h-4.6l6.7-5H21.2z"/>
	<path class="st3" d="M17.4,19.8l-6.7,5H6.1l7.4-5H17.4z"/>
	<path d="M67.3,20.2h-3.8c-0.3,0-0.5-0.2-0.5-0.5s0.2-0.5,0.5-0.5h3.8c0.3,0,0.5,0.2,0.5,0.5S67.5,20.2,67.3,20.2L67.3,20.2z
		 M86.5,20.2h-3.9c-0.3,0-0.5-0.2-0.5-0.5s0.2-0.5,0.5-0.5h3.9c0.3,0,0.5,0.2,0.5,0.5S86.8,20.2,86.5,20.2z M78.8,20.2H75
		c-0.3,0-0.5-0.2-0.5-0.5s0.2-0.5,0.5-0.5h3.8c0.3,0,0.5,0.2,0.5,0.5S79,20.2,78.8,20.2z M80.1,25.2c-0.1,0-0.2,0-0.3-0.1l-5-4.9
		h-3.6c-0.3,0-0.5-0.2-0.5-0.5c0-0.3,0.2-0.5,0.5-0.5H75c0.1,0,0.2,0,0.3,0.1l5.1,5c0.2,0.2,0.2,0.5,0,0.6
		C80.3,25.1,80.2,25.1,80.1,25.2L80.1,25.2z M70.8,25.2c-0.1,0-0.3-0.1-0.4-0.2l-3.5-5c-0.1-0.2-0.1-0.5,0.1-0.6
		c0.1-0.1,0.2-0.1,0.2-0.1h3.8c0.1,0,0.3,0.1,0.3,0.2l4.3,5c0.2,0.2,0.2,0.5,0,0.6c-0.2,0.2-0.5,0.2-0.6,0c0,0,0,0-0.1-0.1l-4.2-4.8
		h-2.8l3,4.3c0.1,0.2,0.1,0.5-0.1,0.6C70.9,25.2,70.9,25.2,70.8,25.2L70.8,25.2z M98.5,25.2c-0.1,0-0.2,0-0.2-0.1l-8.1-5H88l6.2,4.2
		c0.2,0.2,0.2,0.4,0.1,0.6c-0.1,0.2-0.4,0.2-0.6,0.1l-7.4-5C86,20,86,19.7,86.1,19.5c0.1-0.1,0.2-0.2,0.4-0.2h3.8
		c0.1,0,0.2,0,0.2,0.1l8.2,5c0.2,0.1,0.3,0.4,0.1,0.6C98.9,25.1,98.7,25.2,98.5,25.2L98.5,25.2z M89.3,25.2c-0.1,0-0.2,0-0.3-0.1
		l-6.5-4.9H80l5,4.2c0.2,0.2,0.2,0.5,0,0.6c-0.2,0.2-0.4,0.2-0.6,0l-5.9-5c-0.2-0.2-0.2-0.5-0.1-0.6c0.1-0.1,0.2-0.2,0.3-0.2h3.8
		c0.1,0,0.2,0,0.3,0.1l6.7,5c0.2,0.2,0.2,0.4,0.1,0.6C89.6,25.2,89.4,25.2,89.3,25.2L89.3,25.2z M66.2,25.2c-0.2,0-0.3-0.1-0.4-0.2
		l-2.6-4.7h-3.6c-0.3,0-0.5-0.2-0.5-0.5s0.2-0.5,0.5-0.5h3.8c0.2,0,0.3,0.1,0.4,0.2l2.7,5c0.1,0.2,0,0.5-0.2,0.6
		C66.3,25.2,66.3,25.2,66.2,25.2L66.2,25.2z M32.7,20.2h-3.9c-0.3,0-0.5-0.2-0.5-0.5s0.2-0.5,0.5-0.5h3.8c0.3,0,0.5,0.2,0.5,0.5
		S32.9,20.2,32.7,20.2L32.7,20.2z M44.2,20.2h-3.8c-0.3,0-0.5-0.2-0.5-0.5s0.2-0.5,0.5-0.5l0,0h3.8c0.3,0,0.5,0.2,0.5,0.5
		S44.5,20.2,44.2,20.2z M33.8,25.2h-4.6c-0.3,0-0.5-0.2-0.4-0.5c0-0.1,0-0.2,0.1-0.2l3.5-5c0.1-0.1,0.2-0.2,0.4-0.2h3.8
		c0.3,0,0.5,0.2,0.5,0.5s-0.2,0.5-0.5,0.5H33l-2.9,4.1h3.7c0.2,0.1,0.4,0.3,0.3,0.6C34.1,25,33.9,25.1,33.8,25.2z M47.7,25.2h-4.7
		c-0.3,0-0.5-0.2-0.5-0.5c0,0,0-0.1,0-0.1l1.2-5c0.1-0.2,0.2-0.3,0.4-0.3h3.8c0.3,0,0.5,0.2,0.5,0.5c0,0.3-0.2,0.5-0.5,0.5h-3.5
		l-1,4.1h4.1c0.2-0.1,0.5,0,0.6,0.3c0.1,0.2,0,0.5-0.3,0.6C47.9,25.2,47.8,25.2,47.7,25.2z M38.4,25.2h-4.6c-0.3,0-0.5-0.2-0.5-0.5
		c0-0.1,0-0.1,0.1-0.2l2.7-5c0.1-0.1,0.2-0.2,0.4-0.2h3.8c0.3,0,0.5,0.2,0.5,0.5c0,0.1,0,0.1,0,0.2l-2,5
		C38.8,25.1,38.6,25.2,38.4,25.2z M34.6,24.3h3.5l1.7-4.1h-3L34.6,24.3z M52.3,25.2h-4.6c-0.3,0-0.5-0.2-0.5-0.5c0,0,0,0,0,0l0.4-5
		c0-0.2,0.2-0.4,0.5-0.4H52c0.3,0,0.5,0.2,0.5,0.5s-0.2,0.5-0.5,0.5l0,0h-3.5l-0.3,4.1h4.1c0.3,0,0.5,0.2,0.5,0.5
		S52.6,25.2,52.3,25.2C52.3,25.2,52.3,25.2,52.3,25.2L52.3,25.2z M61.6,25.2h-4.6c-0.3,0-0.5-0.2-0.5-0.5c0-0.3,0.2-0.5,0.5-0.5h4
		l-1.6-4.1h-3.5c-0.3,0-0.5-0.2-0.5-0.5s0.2-0.5,0.5-0.5h3.8c0.2,0,0.4,0.1,0.4,0.3l2,5c0.1,0.2,0,0.5-0.3,0.6
		C61.7,25.2,61.6,25.2,61.6,25.2L61.6,25.2z M56.9,25.2h-4.6c-0.2,0-0.4-0.2-0.5-0.4l-0.4-5c0-0.3,0.2-0.5,0.4-0.5c0,0,0,0,0,0h3.8
		c0.2,0,0.4,0.1,0.4,0.3l1.2,5c0.1,0.2-0.1,0.5-0.3,0.5C57,25.2,57,25.2,56.9,25.2z M52.7,24.3h3.6l-1-4.1h-3L52.7,24.3z M1.5,25.2
		C1.2,25.2,1,25,1,24.7c0-0.2,0.1-0.3,0.2-0.4l8.2-5c0.1,0,0.2-0.1,0.2-0.1h3.8c0.3,0,0.5,0.2,0.5,0.5s-0.2,0.5-0.5,0.5H9.8l-8.1,5
		C1.6,25.2,1.5,25.2,1.5,25.2z M24.6,25.2H20c-0.3,0-0.5-0.2-0.5-0.5c0-0.3,0.2-0.5,0.5-0.5h4.4l3.5-4.1h-2.8
		c-0.3,0-0.5-0.2-0.5-0.5s0.2-0.5,0.5-0.5h3.8c0.3,0,0.5,0.2,0.5,0.5c0,0.1,0,0.2-0.1,0.3l-4.3,5C24.8,25.1,24.7,25.2,24.6,25.2z
		 M10.7,25.2H6.1c-0.3,0-0.5-0.2-0.5-0.5c0-0.2,0.1-0.3,0.2-0.4l7.5-5c0.1-0.1,0.2-0.1,0.3-0.1h3.8c0.3,0,0.5,0.2,0.5,0.5
		s-0.2,0.5-0.5,0.5l0,0h-3.7l-6.1,4.1h3.1c0.3,0,0.5,0.2,0.5,0.5C11.2,25,11,25.2,10.7,25.2L10.7,25.2z M20,25.2h-4.6
		c-0.3,0-0.5-0.2-0.5-0.5c0-0.3,0.2-0.5,0.5-0.5h4.4l4.2-4.1h-2.7c-0.3,0-0.5-0.2-0.5-0.5s0.2-0.5,0.5-0.5H25c0.3,0,0.5,0.2,0.4,0.5
		c0,0.1,0,0.2-0.1,0.3l-5.1,5C20.2,25.1,20.1,25.2,20,25.2z M15.3,25.2h-4.6c-0.3,0-0.5-0.2-0.5-0.5c0-0.1,0.1-0.3,0.2-0.4l6.7-5
		c0.1-0.1,0.2-0.1,0.3-0.1h3.8c0.3,0,0.5,0.2,0.5,0.5c0,0.1-0.1,0.3-0.2,0.3l-5.9,5C15.5,25.2,15.4,25.2,15.3,25.2z M12.1,24.3h3.1
		l4.8-4.1h-2.4L12.1,24.3z"/>
	<path class="st0" d="M9.7,9.8h80.6v10H9.7L9.7,9.8z"/>
	<path class="st4" d="M12.2,61.1c-1.1-0.4-1.7-1.6-1.3-2.7c0.4-1.1,1.6-1.7,2.7-1.3c0.2,0.1,0.5,0.2,0.7,0.4c0-0.1,0-0.2,0-0.3
		c0-1.5,1.3-2.7,2.8-2.6c1,0,1.9,0.6,2.3,1.5c0.8-0.8,2-0.8,2.8,0c0.5,0.5,0.7,1.2,0.5,1.8c0.2-0.1,0.4-0.1,0.6-0.1
		c0.9,0,1.7,0.8,1.7,1.7l0,0c0,0.8-0.6,1.5-1.4,1.7L12.2,61.1z"/>
	<path d="M23.6,61.5H12c-1.4-0.4-2.1-1.9-1.7-3.2c0.4-1.4,1.9-2.1,3.2-1.7c0.1,0,0.2,0.1,0.2,0.1c0.3-1.7,1.9-2.9,3.6-2.7
		c0.8,0.1,1.6,0.6,2.1,1.2c0.4-0.3,0.9-0.4,1.3-0.4c1.3,0,2.4,1,2.4,2.3h0c1.2,0,2.1,1,2.1,2.1C25.5,60.5,24.7,61.4,23.6,61.5
		L23.6,61.5z M12.2,60.6h11.3c0.6-0.1,1-0.6,1-1.2c0-0.7-0.5-1.2-1.2-1.2c-0.2,0-0.3,0-0.5,0.1c-0.2,0.1-0.5,0-0.6-0.3
		c0-0.1,0-0.2,0-0.3c0-0.1,0-0.2,0-0.4c0-0.8-0.7-1.5-1.5-1.5c-0.4,0-0.8,0.2-1.1,0.5c-0.2,0.2-0.5,0.2-0.6,0c0,0-0.1-0.1-0.1-0.1
		c-0.6-1.1-1.9-1.6-3-1c-0.8,0.4-1.2,1.2-1.3,2c0,0.1,0,0.2,0,0.2c0,0.3-0.2,0.5-0.4,0.5c-0.1,0-0.2,0-0.3-0.1
		c-0.7-0.6-1.7-0.5-2.3,0.2c-0.6,0.7-0.5,1.7,0.2,2.3C11.8,60.5,12,60.5,12.2,60.6L12.2,60.6z M18,56.5c-0.1,0-0.2,0-0.3-0.1
		c-0.1-0.1-0.2-0.1-0.4-0.2c-0.2-0.1-0.4-0.3-0.3-0.6c0.1-0.2,0.3-0.3,0.5-0.3c0.3,0.1,0.5,0.2,0.7,0.3c0.2,0.1,0.3,0.4,0.1,0.6
		C18.3,56.5,18.1,56.5,18,56.5z M15.5,57.5L15.5,57.5c-0.3-0.1-0.5-0.3-0.4-0.5c0.1-0.6,0.5-1.2,1.1-1.4c0.2-0.1,0.5,0,0.6,0.2
		c0.1,0.2,0,0.5-0.2,0.6c-0.3,0.2-0.5,0.4-0.6,0.8C15.9,57.4,15.7,57.5,15.5,57.5z M12.5,59c-0.3,0-0.5-0.2-0.5-0.5
		c0-0.1,0.1-0.3,0.2-0.4c0.4-0.3,0.8-0.4,1.2-0.3c0.2,0.1,0.4,0.3,0.3,0.6c-0.1,0.2-0.3,0.4-0.5,0.3c-0.2,0-0.4,0-0.5,0.1
		C12.7,59,12.6,59,12.5,59z M12,60c-0.2,0-0.4-0.2-0.5-0.4v-0.1c0-0.1,0-0.2,0-0.3c0-0.2,0.3-0.4,0.5-0.4s0.4,0.3,0.4,0.5
		c0,0,0,0,0,0c0,0,0,0.1,0,0.1v0.1C12.5,59.7,12.3,60,12,60L12,60z"/>
	<path class="st5" d="M39.3,61.1c0.6,0,1.1-0.5,1.1-1.1s-0.5-1.1-1.1-1.1h-0.2c0.1-0.7-0.3-1.4-1.1-1.5c-0.3-0.1-0.6,0-0.8,0.1
		c0.2-1.2-0.7-2.3-1.9-2.4c-1.2-0.2-2.3,0.7-2.4,1.9c0,0.1,0,0.2,0,0.3c-0.6-0.7-1.6-0.8-2.3-0.2c-0.5,0.5-0.7,1.2-0.5,1.8
		c-0.6-0.3-1.3-0.1-1.6,0.5c-0.3,0.6-0.1,1.3,0.5,1.6c0.2,0.1,0.4,0.1,0.6,0.1L39.3,61.1z"/>
	<path d="M39.3,61.5h-9.8c-0.9,0-1.6-0.6-1.7-1.5c0-0.9,0.6-1.6,1.5-1.7c0.1,0,0.2,0,0.2,0v-0.1c0-1.1,0.8-2,1.9-2.1
		c0.4,0,0.8,0.1,1.1,0.3c0.4-1.3,1.9-2.1,3.2-1.6c1,0.3,1.6,1.2,1.8,2.2h0.2c0.9,0,1.6,0.7,1.7,1.6c0.8,0.1,1.4,0.8,1.3,1.6
		C40.7,61,40.1,61.5,39.3,61.5L39.3,61.5z M29.5,59.1c-0.4,0-0.8,0.4-0.8,0.8c0,0.4,0.4,0.8,0.8,0.8c0,0,0,0,0,0h9.8
		c0.4,0,0.7-0.3,0.7-0.7c0-0.4-0.3-0.7-0.7-0.7h-0.1c-0.2,0-0.4-0.1-0.4-0.3c0,0,0-0.1,0-0.1c0-0.1,0-0.1,0-0.2
		c0-0.5-0.4-0.9-0.9-0.9c-0.1,0-0.3,0-0.4,0.1c-0.2,0.1-0.4,0-0.5-0.2c0-0.1,0-0.1,0-0.2c0.1-1-0.6-1.8-1.6-1.9s-1.8,0.6-1.9,1.6
		c0,0,0,0,0,0.1c0,0.2-0.2,0.4-0.4,0.4c-0.1,0-0.2-0.1-0.3-0.1c-0.4-0.5-1.2-0.6-1.8-0.2c-0.4,0.3-0.6,0.9-0.4,1.4
		c0.1,0.2,0,0.4-0.2,0.5c-0.1,0-0.2,0-0.3,0C29.8,59.1,29.7,59.1,29.5,59.1L29.5,59.1z M34.4,56.7c-0.2,0-0.4-0.2-0.4-0.4
		c0-0.1,0.1-0.3,0.2-0.3c0.4-0.3,0.9-0.3,1.4-0.2c0.2,0,0.4,0.2,0.3,0.4c0,0.2-0.2,0.4-0.4,0.3c0,0-0.1,0-0.1,0
		c-0.3-0.1-0.6,0-0.8,0.1C34.6,56.6,34.5,56.6,34.4,56.7z M33.9,57.3h-0.1c-0.2-0.1-0.3-0.3-0.2-0.5l0.1-0.2
		c0.1-0.2,0.4-0.2,0.5-0.1c0.2,0.1,0.2,0.3,0.2,0.5v0.1C34.2,57.2,34,57.3,33.9,57.3z M31,58.6c-0.2,0-0.4-0.2-0.4-0.4
		c0-0.1,0-0.2,0.1-0.2c0.3-0.3,0.7-0.5,1.1-0.5h0.2c0.2,0,0.4,0.2,0.4,0.4c0,0.2-0.2,0.4-0.4,0.4c0,0,0,0-0.1,0
		c-0.2,0-0.4,0.1-0.6,0.2C31.2,58.5,31.1,58.6,31,58.6z"/>
	<path class="st6" d="M70.5,61.1c0.8,0,1.5-0.7,1.5-1.5c0-0.8-0.7-1.5-1.5-1.5c0,0,0,0,0,0h-0.2c0.4-1-0.1-2.1-1.1-2.5
		c-0.6-0.2-1.4-0.1-1.9,0.3c-0.4-1.2-1.8-1.8-3-1.4c-1.1,0.4-1.7,1.6-1.4,2.7c-0.4-0.2-0.9-0.3-1.4-0.3c-1.2-0.1-2.4,0.8-2.5,2
		c0.2,1.2,1.3,2.1,2.5,2L70.5,61.1z"/>
	<path d="M70.5,61.5h-8.9c-1.5,0.2-2.8-0.9-3-2.4c0.2-1.5,1.5-2.6,3-2.4c0.3,0,0.6,0,0.9,0.1v-0.1c-0.1-1.5,1.1-2.7,2.6-2.8
		c1.1,0,2.1,0.6,2.5,1.5c0.3-0.1,0.7-0.2,1-0.2c1.3,0,2.3,1,2.3,2.3c0,0.1,0,0.2,0,0.3c1,0.2,1.7,1.1,1.5,2.1
		C72.3,60.8,71.5,61.5,70.5,61.5L70.5,61.5z M61.6,57.4c-1-0.1-2,0.6-2.2,1.6c0.2,1,1.1,1.7,2.2,1.6h8.9c0.6,0,1.1-0.5,1.1-1.1
		c0-0.6-0.5-1.1-1.1-1.1c0,0,0,0,0,0h-0.1c-0.1,0-0.3,0-0.4-0.1c-0.1-0.1-0.1-0.3-0.1-0.4c0.3-0.8-0.1-1.7-0.9-2
		c-0.5-0.2-1-0.1-1.5,0.2c-0.2,0.1-0.4,0.1-0.5-0.1c0,0,0-0.1-0.1-0.1c-0.3-1-1.4-1.5-2.4-1.2c-1,0.3-1.5,1.4-1.2,2.3
		c0.1,0.2-0.1,0.4-0.3,0.5c-0.1,0-0.2,0-0.3,0C62.4,57.5,62,57.4,61.6,57.4L61.6,57.4z M65.8,56.2c-0.1,0-0.1,0-0.2,0
		c-0.1-0.1-0.2-0.1-0.4-0.1c-0.2,0-0.4-0.2-0.4-0.4c0-0.2,0.2-0.4,0.4-0.4c0,0,0,0,0,0c0.2,0,0.5,0.1,0.7,0.2
		c0.2,0.1,0.3,0.3,0.2,0.5C66.1,56.1,66,56.2,65.8,56.2L65.8,56.2z M64.1,57.5c-0.2,0-0.3-0.1-0.4-0.3c0-0.1,0-0.3,0-0.4
		c0-0.4,0.1-0.7,0.3-1c0.2-0.2,0.4-0.2,0.5,0c0.1,0.1,0.1,0.3,0.1,0.5c-0.1,0.1-0.2,0.3-0.2,0.5c0,0.1,0,0.1,0,0.2
		C64.5,57.2,64.4,57.4,64.1,57.5L64.1,57.5z M60.9,58.8c-0.2,0-0.4-0.2-0.4-0.4c0-0.1,0.1-0.3,0.2-0.3c0.3-0.1,0.7-0.2,1-0.2
		c0.2,0,0.4,0.1,0.4,0.3c0,0.2-0.1,0.4-0.3,0.4c0,0-0.1,0-0.1,0C61.5,58.6,61.2,58.7,60.9,58.8C61,58.8,60.9,58.8,60.9,58.8z
		 M60.4,59.9c-0.1,0-0.2-0.1-0.3-0.1c-0.1-0.2-0.2-0.4-0.2-0.6c0-0.2,0.1-0.4,0.2-0.5c0.1-0.2,0.3-0.3,0.5-0.2
		c0.2,0.1,0.3,0.3,0.2,0.5c0,0.1-0.1,0.1-0.1,0.2c0,0,0,0.1,0,0.1c0,0,0,0.1,0.1,0.1c0.1,0.2,0.1,0.4,0,0.5
		C60.6,59.8,60.5,59.9,60.4,59.9L60.4,59.9z"/>
	<path class="st5" d="M88.2,61c0.8,0,1.5-0.7,1.5-1.5c0-0.8-0.7-1.5-1.5-1.5c-0.2,0-0.3,0-0.5,0.1c0.5-1.6-0.3-3.3-1.9-3.8
		c-1.6-0.5-3.3,0.3-3.8,1.9l0,0c-0.7-1.1-2-1.4-3.1-0.7c-0.7,0.4-1.1,1.1-1.1,1.9v0.2c-0.8-0.6-2-0.5-2.7,0.3
		c-0.6,0.8-0.5,2,0.3,2.7c0.3,0.3,0.8,0.4,1.2,0.4H88.2z"/>
	<path d="M88.2,61.5H76.6c-1.3,0-2.4-1-2.4-2.3c0-1.3,1-2.4,2.3-2.4c0.3,0,0.5,0,0.8,0.1c0.3-1.3,1.4-2.2,2.7-2.2
		c0.7,0,1.3,0.2,1.8,0.7c1-1.7,3.2-2.2,4.8-1.2c1.2,0.7,1.8,2,1.7,3.4c1.1,0,1.9,0.9,1.9,2C90.1,60.7,89.2,61.5,88.2,61.5z
		 M76.6,57.7c-0.8,0-1.4,0.6-1.4,1.4c0,0.8,0.6,1.4,1.4,1.4h11.6c0.6,0,1-0.5,1-1c0-0.6-0.5-1-1-1c-0.1,0-0.2,0-0.3,0.1
		c-0.2,0.1-0.5,0-0.6-0.3c0-0.1,0-0.2,0-0.3c0.4-1.4-0.3-2.8-1.7-3.3c-1.4-0.4-2.8,0.3-3.3,1.7l0,0c-0.1,0.2-0.3,0.4-0.6,0.3
		c-0.1,0-0.2-0.1-0.2-0.2c-0.5-0.8-1.6-1.1-2.5-0.6c-0.5,0.3-0.9,0.9-0.9,1.5v0.2c0,0.3-0.2,0.5-0.4,0.5c-0.1,0-0.2,0-0.3-0.1
		C77.2,57.8,76.9,57.7,76.6,57.7L76.6,57.7z M83.2,57.6c-0.3,0-0.5-0.2-0.5-0.5c0-0.9,0.6-1.6,1.4-1.9c0.2,0,0.5,0.1,0.5,0.4
		c0,0.2-0.1,0.4-0.3,0.5c-0.4,0.1-0.7,0.5-0.8,1C83.7,57.4,83.5,57.6,83.2,57.6C83.2,57.6,83.2,57.6,83.2,57.6z M79.6,57.2
		c-0.3,0-0.5-0.2-0.4-0.5c0-0.1,0.1-0.3,0.2-0.4c0.4-0.2,0.8-0.3,1.3-0.2c0.2,0.1,0.3,0.4,0.3,0.6c-0.1,0.2-0.3,0.3-0.5,0.3
		c-0.2-0.1-0.4,0-0.5,0.1C79.7,57.2,79.6,57.2,79.6,57.2z M79.1,58.1c-0.3,0-0.5-0.2-0.5-0.5c0-0.1,0-0.2,0-0.3
		c0-0.3,0.3-0.4,0.5-0.4c0.3,0,0.4,0.3,0.4,0.5c0,0,0,0.1,0,0.1c0,0,0,0.1,0,0.1C79.5,57.9,79.3,58.1,79.1,58.1z M17.4,45.8
		c-0.3,0-0.5-0.2-0.5-0.5c0-0.1,0-0.2,0.1-0.3l11.2-12.9c0.2-0.2,0.5-0.2,0.6,0c0.1,0.2,0.2,0.4,0,0.6L17.8,45.7
		C17.7,45.8,17.6,45.8,17.4,45.8z M65.2,45.8c-0.3,0-0.5-0.2-0.5-0.5c0-0.1,0-0.2,0.1-0.3l2.1-2.4c0.1-0.2,0.4-0.3,0.6-0.1
		c0.2,0.1,0.3,0.4,0.1,0.6c0,0,0,0.1-0.1,0.1l-2.1,2.4C65.5,45.8,65.3,45.8,65.2,45.8z M68.9,41.6c-0.3,0-0.5-0.2-0.5-0.5
		c0-0.1,0-0.2,0.1-0.3l7.5-8.7c0.1-0.2,0.4-0.3,0.6-0.1c0.2,0.1,0.3,0.4,0.1,0.6c0,0,0,0.1-0.1,0.1l-7.5,8.7
		C69.2,41.5,69,41.6,68.9,41.6z M68.5,45.8c-0.3,0-0.5-0.2-0.5-0.5c0-0.1,0-0.2,0.1-0.3L77,34.8c0.1-0.2,0.4-0.3,0.6-0.1
		c0.2,0.1,0.3,0.4,0.1,0.6c0,0,0,0.1-0.1,0.1l-8.9,10.2C68.8,45.8,68.6,45.8,68.5,45.8z M78.6,34.3c-0.3,0-0.5-0.2-0.5-0.5
		c0-0.1,0-0.2,0.1-0.3l1.2-1.4c0.1-0.2,0.4-0.3,0.6-0.1c0.2,0.1,0.3,0.4,0.1,0.6c0,0,0,0.1-0.1,0.1l-1.2,1.4
		C78.8,34.2,78.7,34.3,78.6,34.3z M46.2,44.2c-0.3,0-0.5-0.2-0.5-0.5c0-0.1,0-0.2,0.1-0.3l7.4-8.6c0.2-0.2,0.5-0.2,0.6,0
		c0.1,0.2,0.2,0.4,0,0.6l-7.4,8.6C46.5,44.2,46.4,44.2,46.2,44.2z M45.7,48.5c-0.3,0-0.5-0.2-0.5-0.5c0-0.1,0-0.2,0.1-0.3l1.2-1.3
		c0.2-0.2,0.5-0.2,0.6,0c0.1,0.2,0.2,0.4,0,0.6l-1.2,1.3C46,48.5,45.9,48.5,45.7,48.5z M48.5,45.4c-0.3,0-0.5-0.2-0.5-0.5
		c0-0.1,0-0.2,0.1-0.3l5-5.7c0.2-0.2,0.5-0.2,0.6,0c0.1,0.2,0.2,0.4,0,0.6l-5,5.7C48.7,45.4,48.6,45.4,48.5,45.4z M20.7,45.8
		c-0.3,0-0.5-0.2-0.5-0.5c0-0.1,0-0.2,0.1-0.3l3-3.5c0.2-0.2,0.5-0.2,0.6,0c0.1,0.2,0.2,0.4,0,0.6l-3,3.5
		C21,45.8,20.9,45.8,20.7,45.8z M25.4,40.4c-0.3,0-0.5-0.2-0.5-0.5c0-0.1,0-0.2,0.1-0.3l0.5-0.5c0.2-0.2,0.5-0.2,0.6,0
		c0.1,0.2,0.2,0.4,0,0.6l-0.5,0.5C25.7,40.4,25.5,40.4,25.4,40.4z M27.2,38.3c-0.3,0-0.5-0.2-0.5-0.5c0-0.1,0-0.2,0.1-0.3l4.7-5.4
		c0.2-0.2,0.5-0.2,0.6,0c0.1,0.2,0.2,0.4,0,0.6l-4.7,5.4C27.5,38.3,27.4,38.3,27.2,38.3z"/>
	<path class="st7" d="M11.5,61.1h12.7v4.3H11.5L11.5,61.1z"/>
	<path d="M24.2,65.8H11.5c-0.3,0-0.5-0.2-0.5-0.5v-4.3c0-0.3,0.2-0.5,0.5-0.5h12.7c0.3,0,0.5,0.2,0.5,0.5v4.3
		C24.7,65.6,24.5,65.8,24.2,65.8z M11.9,65h11.8v-3.4H11.9L11.9,65z"/>
	<path class="st7" d="M28,61.1h12.7v4.3H28L28,61.1z"/>
	<path d="M40.7,65.8H28c-0.3,0-0.5-0.2-0.5-0.5v-4.3c0-0.3,0.2-0.5,0.5-0.5h12.7c0.3,0,0.5,0.2,0.5,0.5v4.3
		C41.2,65.6,41,65.8,40.7,65.8z M28.5,65h11.8v-3.4H28.5V65z"/>
	<path class="st7" d="M59.3,61.1H72v4.3H59.3L59.3,61.1z"/>
	<path d="M72,65.8H59.3c-0.3,0-0.5-0.2-0.5-0.5v-4.3c0-0.3,0.2-0.5,0.5-0.5H72c0.3,0,0.5,0.2,0.5,0.5v4.3
		C72.5,65.6,72.3,65.8,72,65.8z M59.8,65h11.8v-3.4H59.8L59.8,65z"/>
	<path class="st7" d="M75.8,61.1h12.7v4.3H75.8V61.1z"/>
	<path d="M88.5,65.8H75.8c-0.3,0-0.5-0.2-0.5-0.5v-4.3c0-0.3,0.2-0.5,0.5-0.5h12.7c0.3,0,0.5,0.2,0.5,0.5v4.3
		C89,65.6,88.8,65.8,88.5,65.8z M76.3,65h11.8v-3.4H76.3V65z"/>
	<path class="st8" d="M44,17.3l-0.3,0.1c-0.1,0.1-0.3,0.1-0.4,0.2c-0.2,0.1-0.3,0.1-0.5,0.1c-0.2,0-0.4,0.1-0.6,0
		c-0.4,0-0.8-0.1-1.2-0.2c-0.7-0.3-1.2-0.8-1.5-1.5c-0.1-0.4-0.2-0.7-0.2-1.1c0-0.4,0.1-0.8,0.2-1.2c0.1-0.4,0.4-0.7,0.6-0.9
		c0.3-0.3,0.6-0.5,0.9-0.6c0.4-0.1,0.8-0.2,1.2-0.2c0.2,0,0.3,0,0.5,0l0.4,0.1c0.1,0,0.2,0.1,0.4,0.1c0.1,0,0.2,0.1,0.2,0.1
		l-0.1,0.2l-0.1,0.1l-0.1,0.2l-0.1,0.3c-0.1,0-0.1-0.1-0.2-0.1l-0.3-0.1h-0.6c-0.3,0-0.6,0.1-0.8,0.2c-0.2,0.1-0.5,0.3-0.6,0.4
		c-0.2,0.2-0.3,0.4-0.4,0.6c-0.1,0.2-0.2,0.5-0.1,0.7c0,0.3,0.1,0.5,0.1,0.7c0.1,0.2,0.2,0.5,0.4,0.6c0.2,0.2,0.4,0.3,0.6,0.4
		c0.2,0.1,0.5,0.2,0.8,0.2c0.2,0,0.3-0.1,0.5-0.1l0.4-0.1l0.3-0.1l0.1-0.1L44,17.3z M49.6,17.7l-0.1-0.2l-0.1-0.3l-0.2-0.4L49,16.2
		h-2l-0.6,1.5h-1l0.1-0.3l0.3-0.7l0.4-0.9l0.4-1l0.4-1l0.4-0.9l0.3-0.7l0.1-0.3l0.1,0.3l0.3,0.7l0.4,0.9l0.4,1l0.4,1l0.4,0.9
		l0.3,0.7l0.1,0.3H49.6z M47.3,15.4h1.3l-0.6-1.4v-0.1c0-0.1,0-0.1,0-0.2c0,0.1,0,0.1,0,0.2v0.1L47.3,15.4z M51.7,17.7V12h3.5v0.9
		h-2.5v1.6h2.2v0.9h-2.2v2.3H51.7z M56.7,17.7V12h3.8v0.9h-2.9v1.5h2.5v0.9h-2.5v1.5h3v0.9H56.7z"/>
</g>
</svg>
