<?xml version="1.0" encoding="utf-8"?>
<!-- Generator: Adobe Illustrator 21.0.0, SVG Export Plug-In . SVG Version: 6.00 Build 0)  -->
<svg version="1.1" id="Layer_1" xmlns="http://www.w3.org/2000/svg" xmlns:xlink="http://www.w3.org/1999/xlink" x="0px" y="0px"
	 viewBox="0 0 100 80" style="enable-background:new 0 0 100 80;" xml:space="preserve">
<style type="text/css">
	.st0{fill:#FEB856;stroke:#000000;stroke-linecap:round;stroke-linejoin:round;}
	.st1{fill:#FFFEEE;stroke:#000000;stroke-linecap:round;stroke-linejoin:round;}
	.st2{fill:#FE6067;stroke:#000000;stroke-linecap:round;stroke-linejoin:round;}
	.st3{fill:none;stroke:#000000;stroke-linecap:round;stroke-linejoin:round;}
	.st4{fill:#FFFFFF;stroke:#000000;stroke-linecap:round;stroke-linejoin:round;}
	.st5{fill:#ABACB0;stroke:#000000;stroke-linecap:round;stroke-linejoin:round;}
	.st6{fill:#CAD9D4;stroke:#000000;stroke-linecap:round;stroke-linejoin:round;}
</style>
<g id="Слой_1-2">
	<path class="st0" d="M35.3,55.5v-29c0,0-0.1-5.8,0-6.8l0.2-2.1c2.2-7,9-11.6,16.3-11.1c5.5,0.4,4.1,3.7,4.1,3.7
		c1.2-1.4,3.3-1.5,4.7-0.2c0,0,0,0,0,0c2.8,2.1,4.7,6.6,4.9,10c0.1,2.2,0.1,4.3,0,6.5l0.1,7.4v21.5"/>
	<path class="st1" d="M50.4,11.5L50.4,11.5c5.7,0,10.4,4.6,10.4,10.4v13c0,5.7-4.6,10.4-10.4,10.4l0,0c-5.7,0-10.4-4.6-10.4-10.4
		v-13C40,16.1,44.7,11.5,50.4,11.5z"/>
	<path class="st0" d="M40,23.5c0,0-0.2-3.6,0.6-5.3c1.1-2.8,3.3-5,6.2-6.1c2.8-1,5.9-0.8,8.5,0.6c-1,6.3-6.4,11-12.8,11
		C41.7,23.8,40.9,23.7,40,23.5L40,23.5z"/>
	<path class="st2" d="M69.2,55.5c5.1,0,9.2,4.1,9.2,9.2v10H22.5v-10c0-5.1,4.1-9.2,9.2-9.2"/>
	<path class="st1" d="M44.5,43.3v7.1c0,1.7-1.4,3.2-3.2,3.2h-0.1l9.3,15.8l9.3-15.8h-0.1c-1.7,0-3.2-1.4-3.2-3.2v-7.2
		c-1.8,1.3-3.9,2-6.1,2C48.3,45.2,46.2,44.5,44.5,43.3z"/>
	<path class="st3" d="M41.7,25.9h4.7c1.7,0,3.2,1.4,3.2,3.1v6.5c0,0-0.1,0.6,0.4,0.6h1.6 M52.1,25.9h6.4 M61.9,40.5v13 M39.2,45.6
		v7.9"/>
	<path class="st0" d="M55.4,12.8c0.1,3.8,2.1,7.3,5.4,9.2c0-0.9-0.1-1.7-0.3-2.5c-0.4-1.5-1.1-2.8-2-4.1
		C57.6,14.4,56.5,13.5,55.4,12.8z"/>
	<path class="st3" d="M51.6,14.7c-2,3-5.1,5.1-8.7,5.7 M37.8,24.3v-2.9c0-6.7,5.5-12.2,12.2-12.2h0.9c6.7,0,12.2,5.5,12.2,12.2v2.9"
		/>
	<path class="st4" d="M63,24.3v-2.9c0-6.7-5.5-12.2-12.2-12.2H50c-6.7,0-12.2,5.5-12.2,12.2v2.9H40v-2.4c0-5.7,4.6-10.3,10.4-10.4
		c5.7,0,10.3,4.6,10.4,10.4v2.4H63z"/>
	<path class="st3" d="M54.2,38.2c-1.8,2.3-5.2,2.7-7.5,0.9c-0.3-0.3-0.6-0.5-0.9-0.9 M42.2,29.7c0.9-1.4,2.8-1.8,4.2-0.9
		c0.4,0.2,0.7,0.5,0.9,0.9"/>
	<circle cx="44.8" cy="29.2" r="0.8"/>
	<path class="st3" d="M52.7,29.7c0.9-1.4,2.8-1.8,4.2-0.9c0.4,0.2,0.7,0.5,0.9,0.9"/>
	<circle cx="55.3" cy="29.2" r="0.8"/>
	<path class="st5" d="M40.3,37.2c-3.8-0.4-6.6-3.7-6.2-7.5c0.3-3.2,2.8-5.7,5.9-6.1v11.5l0.1,0.9l0.2,1.1L40.3,37.2z M60.5,37.2
		c3.8-0.4,6.5-3.8,6.1-7.6c-0.3-3.1-2.8-5.6-5.9-6.1v12.3l-0.2,1L60.5,37.2z"/>
	<path class="st3" d="M37.8,36.4c0,0,0.7,10.2,12.3,10.9"/>
	<path class="st5" d="M42.7,45c-1.1,1.9-0.4,4.3,1.5,5.4c1.9,1.1,4.3,0.4,5.4-1.5c0.3-0.5,0.4-1,0.5-1.6c-1.4-0.1-2.7-0.3-4.1-0.8
		C44.8,46.2,43.7,45.7,42.7,45z"/>
	<path class="st2" d="M45.4,60.7h10.2l-5.1,8.7C50.5,69.4,45.4,60.7,45.4,60.7z"/>
	<path class="st6" d="M69.7,74.8H31.3V55.5l9.9-2l9.3,15.8l9.3-15.8l9.9,2V74.8z"/>
</g>
</svg>
