<?xml version="1.0" encoding="utf-8"?>
<!-- Generator: Adobe Illustrator 21.0.0, SVG Export Plug-In . SVG Version: 6.00 Build 0)  -->
<svg version="1.1" id="Layer_1" xmlns="http://www.w3.org/2000/svg" xmlns:xlink="http://www.w3.org/1999/xlink" x="0px" y="0px"
	 viewBox="0 0 100 80" style="enable-background:new 0 0 100 80;" xml:space="preserve">
<style type="text/css">
	.st0{fill:#949F41;}
	.st1{fill:#DF9466;}
	.st2{fill:#CAD9D4;}
	.st3{fill:#F7E5A6;}
	.st4{fill:#FFFFFF;}
	.st5{fill:#B2A281;}
	.st6{fill:#CDBC94;}
	.st7{fill:#DAE96D;}
</style>
<g id="Слой_1-2">
	<circle class="st0" cx="12.9" cy="51.7" r="12.4"/>
	<path d="M12.9,79.5c-0.3,0-0.5-0.2-0.5-0.5V51.8c0-0.3,0.1-0.5,0.4-0.5c0.3,0,0.5,0.1,0.5,0.4c0,0,0,0.1,0,0.1V79
		C13.3,79.3,13.1,79.5,12.9,79.5z M14.8,55.2h-1.9c-0.3,0-0.4-0.3-0.4-0.5c0-0.2,0.2-0.4,0.4-0.4h1.9c0.3,0,0.4,0.3,0.4,0.5
		C15.1,55,15,55.1,14.8,55.2L14.8,55.2z M12.9,57.6h-1.9c-0.3,0-0.4-0.3-0.4-0.5c0-0.2,0.2-0.4,0.4-0.4h1.9c0.3,0,0.4,0.3,0.4,0.5
		C13.2,57.5,13.1,57.6,12.9,57.6z M20.9,61.6c-0.3,0-0.5-0.2-0.5-0.5c0-0.1,0.1-0.2,0.2-0.3c0.2-0.2,0.4-0.4,0.6-0.6
		c0.2-0.2,0.5-0.1,0.6,0.1c0.1,0.2,0.1,0.4,0,0.6c-0.2,0.2-0.4,0.4-0.7,0.6C21.2,61.5,21.1,61.6,20.9,61.6z M12.9,64.6
		C5.8,64.6,0,58.8,0,51.8s5.8-12.8,12.8-12.8c7.1,0,12.8,5.8,12.8,12.8c0,3-1,5.9-3,8.2c-0.1,0.2-0.4,0.3-0.6,0.2
		c-0.2-0.1-0.3-0.4-0.2-0.6c0,0,0.1-0.1,0.1-0.1c4.2-5.1,3.5-12.6-1.6-16.8S7.8,39.1,3.7,44.2S0.2,56.8,5.3,61
		c4.1,3.4,10,3.6,14.4,0.6c0.2-0.1,0.5,0,0.6,0.2c0.1,0.2,0.1,0.4-0.1,0.6C18,63.8,15.5,64.6,12.9,64.6z M5.7,45.6
		c-0.3,0-0.5-0.2-0.5-0.5c0-0.1,0-0.2,0.1-0.3c1.8-2.1,4.5-3.3,7.2-3.3c0.3,0,0.4,0.3,0.4,0.5c0,0.2-0.2,0.4-0.4,0.4
		c-2.5,0-4.9,1.1-6.5,3C6,45.5,5.9,45.6,5.7,45.6z M3.6,50.2L3.6,50.2c-0.3,0-0.5-0.3-0.5-0.5c0.1-1,0.5-2,0.9-2.9
		c0.1-0.2,0.4-0.4,0.6-0.3s0.4,0.4,0.3,0.6c0,0,0,0,0,0.1c-0.4,0.8-0.7,1.7-0.8,2.7C4.1,50.1,3.9,50.2,3.6,50.2z"/>
	<path class="st1" d="M23.7,18.2h71.3v61.3H23.7V18.2z"/>
	<path d="M95.1,79.9H23.7c-0.2,0-0.5-0.2-0.5-0.5V18.2c0-0.2,0.2-0.5,0.5-0.5h0h71.3c0.2,0,0.5,0.2,0.5,0.5v61.3
		C95.5,79.7,95.3,79.9,95.1,79.9z M24.2,79h70.4V18.6H24.2V79z"/>
	<path class="st2" d="M73.9,24.1h10.8v14.6H73.9V24.1z"/>
	<path d="M84.6,39.1H73.9c-0.2,0-0.5-0.2-0.5-0.5V24.2c0-0.2,0.2-0.5,0.5-0.5h10.7c0.2,0,0.5,0.2,0.5,0.5v14.5
		C85.1,38.9,84.9,39.1,84.6,39.1z M74.3,38.2h9.8V24.6h-9.8V38.2z"/>
	<path class="st3" d="M72.2,21.5h14.4v2.6H72.2V21.5z"/>
	<path d="M86.6,24.6H72.2c-0.2,0-0.4-0.2-0.5-0.4v-2.6c0-0.2,0.2-0.5,0.5-0.5h14.4c0.2,0,0.5,0.2,0.5,0.5v2.6
		C87,24.4,86.8,24.6,86.6,24.6z M72.6,23.7h13.5V22H72.6L72.6,23.7z M79.2,39.1c-0.2,0-0.5-0.2-0.5-0.5V24.2c0-0.2,0.2-0.5,0.5-0.5
		c0.2,0,0.5,0.2,0.5,0.5v14.5C79.7,38.9,79.5,39.1,79.2,39.1z M84.6,30.9H73.9c-0.2,0-0.5-0.2-0.5-0.5c0-0.2,0.2-0.5,0.5-0.5h10.7
		c0.2,0,0.5,0.2,0.5,0.5C85.1,30.7,84.9,30.9,84.6,30.9z"/>
	<path class="st4" d="M72,38.7h14.4v1.9H72V38.7z"/>
	<path d="M86.4,41H72c-0.2,0-0.5-0.2-0.5-0.5v-1.9c0-0.2,0.2-0.5,0.5-0.5h14.4c0.2,0,0.5,0.2,0.5,0.5v1.9C86.9,40.8,86.7,41,86.4,41
		z M72.5,40.1H86v-1H72.5V40.1z"/>
	<path class="st2" d="M54.1,24.1h10.8v14.6H54.1V24.1z"/>
	<path d="M64.9,39.1H54.2c-0.2,0-0.5-0.2-0.5-0.5l0,0V24.2c0-0.2,0.2-0.5,0.5-0.5l0,0h10.7c0.2,0,0.5,0.2,0.5,0.5v14.5
		C65.3,38.9,65.1,39.1,64.9,39.1z M54.6,38.2h9.8V24.6h-9.8L54.6,38.2z"/>
	<path class="st3" d="M52.4,21.5h14.4v2.6H52.4L52.4,21.5z"/>
	<path d="M66.8,24.6H52.4c-0.2,0-0.4-0.2-0.5-0.4v-2.6c0-0.2,0.2-0.5,0.5-0.5l0,0h14.4c0.2,0,0.5,0.2,0.5,0.5v2.6
		C67.2,24.4,67,24.6,66.8,24.6z M52.8,23.7h13.5V22H52.8V23.7z M59.5,39.1c-0.2,0-0.5-0.2-0.5-0.5l0,0V24.2c0-0.2,0.2-0.5,0.5-0.5
		s0.5,0.2,0.5,0.5v14.5C59.9,38.9,59.7,39.1,59.5,39.1L59.5,39.1z M64.9,30.9H54.2c-0.2,0-0.5-0.2-0.5-0.5c0-0.2,0.2-0.5,0.5-0.5
		h10.7c0.2,0,0.5,0.2,0.5,0.5C65.3,30.7,65.1,30.9,64.9,30.9z"/>
	<path class="st4" d="M52.3,38.7h14.4v1.9H52.3V38.7z"/>
	<path d="M66.7,41H52.3c-0.2,0-0.5-0.2-0.5-0.5l0,0v-1.9c0-0.2,0.2-0.5,0.5-0.5l0,0h14.4c0.2,0,0.5,0.2,0.5,0.5v1.9
		C67.1,40.8,66.9,41,66.7,41z M52.7,40.1h13.5v-1H52.7V40.1z"/>
	<path class="st2" d="M32.4,24.1h10.8v14.6H32.4V24.1z"/>
	<path d="M43.1,39.1H32.4c-0.2,0-0.5-0.2-0.5-0.5l0,0V24.2c0-0.2,0.2-0.5,0.5-0.5l0,0h10.8c0.2,0,0.5,0.2,0.5,0.5v0v14.5
		C43.6,38.9,43.4,39.1,43.1,39.1L43.1,39.1z M32.8,38.2h9.8V24.6h-9.8V38.2z"/>
	<path class="st3" d="M30.7,21.5h14.4v2.6H30.7V21.5z"/>
	<path d="M45.1,24.6H30.7c-0.2,0-0.5-0.2-0.5-0.5v0v-2.6c0-0.2,0.2-0.5,0.5-0.5h0h14.4c0.2,0,0.5,0.2,0.5,0.5v0v2.6
		C45.5,24.4,45.3,24.6,45.1,24.6z M31.1,23.7h13.5V22H31.1L31.1,23.7z M37.7,39.1c-0.2,0-0.5-0.2-0.5-0.5l0,0V24.2
		c0-0.2,0.2-0.5,0.5-0.5s0.5,0.2,0.5,0.5v14.5C38.2,38.9,38,39.1,37.7,39.1L37.7,39.1z M43.1,30.9H32.4c-0.2,0-0.5-0.2-0.5-0.5
		c0-0.2,0.2-0.5,0.5-0.5h10.8c0.2,0,0.5,0.2,0.5,0.5C43.6,30.7,43.4,30.9,43.1,30.9z"/>
	<path class="st4" d="M30.5,38.7H45v1.9H30.5V38.7z"/>
	<path d="M44.9,41H30.5c-0.2,0-0.5-0.2-0.5-0.5l0,0v-1.9c0-0.2,0.2-0.5,0.5-0.5h0h14.4c0.2,0,0.5,0.2,0.5,0.5l0,0v1.9
		C45.4,40.8,45.2,41,44.9,41L44.9,41z M31,40.1h13.5v-1H31L31,40.1z"/>
	<path class="st5" d="M21.9,14.6H97v3.6H21.9V14.6z"/>
	<path d="M97,18.6H21.9c-0.2,0-0.5-0.2-0.5-0.5v0v-3.6c0-0.2,0.2-0.5,0.5-0.5l0,0H97c0.2,0,0.5,0.2,0.5,0.5v3.6
		C97.4,18.4,97.2,18.6,97,18.6C97,18.6,97,18.6,97,18.6z M22.3,17.7h74.2V15H22.3V17.7z"/>
	<path class="st6" d="M19.3,14.6h80.3V6.6h-4.3L59.6,0.5l-36,6.1h-4.3V14.6z"/>
	<path d="M99.5,15H19.3c-0.2,0-0.5-0.2-0.5-0.5c0,0,0,0,0,0V6.6c0-0.2,0.2-0.5,0.5-0.5l0,0h4.2l35.9-6.1c0.1,0,0.2,0,0.3,0l35.6,6.1
		h4.2c0.2,0,0.5,0.2,0.5,0.5v7.9C100,14.8,99.8,15,99.5,15z M19.7,14.1h79.4v-7h-4L59.6,1L23.7,7h-4L19.7,14.1z M95.1,32.1h-5.8
		c-0.2,0-0.5-0.2-0.5-0.5c0-0.2,0.2-0.5,0.5-0.5h5.8c0.2,0,0.5,0.2,0.5,0.5C95.5,31.9,95.3,32.1,95.1,32.1L95.1,32.1z M95.1,27h-2.6
		c-0.2,0-0.5-0.2-0.5-0.5c0-0.2,0.2-0.5,0.5-0.5h2.6c0.2,0,0.5,0.2,0.5,0.5C95.5,26.8,95.3,27,95.1,27C95.1,27,95.1,27,95.1,27
		L95.1,27z M95.1,37.1h-4c-0.2,0-0.5-0.2-0.5-0.5s0.2-0.5,0.5-0.5h4c0.2,0,0.5,0.2,0.5,0.5S95.3,37.1,95.1,37.1L95.1,37.1z
		 M95.1,42.2h-2c-0.2,0-0.5-0.2-0.5-0.5s0.2-0.5,0.5-0.5h2c0.2,0,0.5,0.2,0.5,0.5S95.3,42.2,95.1,42.2L95.1,42.2z M95.1,52.2h-5.8
		c-0.2,0-0.5-0.2-0.5-0.5s0.2-0.5,0.5-0.5h5.8c0.2,0,0.5,0.2,0.5,0.5S95.3,52.2,95.1,52.2L95.1,52.2z M95.1,47.2h-2.6
		c-0.2,0-0.5-0.2-0.5-0.5s0.2-0.5,0.5-0.5h2.6c0.2,0,0.5,0.2,0.5,0.5S95.3,47.2,95.1,47.2L95.1,47.2L95.1,47.2z M95.1,57.2h-4
		c-0.2,0-0.5-0.2-0.5-0.5s0.2-0.5,0.5-0.5h4c0.2,0,0.5,0.2,0.5,0.5S95.3,57.2,95.1,57.2L95.1,57.2z M95.1,62.3h-2
		c-0.2,0-0.5-0.2-0.5-0.5s0.2-0.5,0.5-0.5h2c0.2,0,0.5,0.2,0.5,0.5S95.3,62.3,95.1,62.3L95.1,62.3z M29.6,32.1h-5.8
		c-0.2,0-0.5-0.2-0.5-0.5c0-0.2,0.2-0.5,0.5-0.5h5.8c0.2,0,0.5,0.2,0.5,0.5C30,31.9,29.8,32.1,29.6,32.1z M26.3,37.1h-2.6
		c-0.2,0-0.5-0.2-0.5-0.5s0.2-0.5,0.5-0.5h2.6c0.2,0,0.5,0.2,0.5,0.5S26.6,37.1,26.3,37.1L26.3,37.1z M27.7,27h-4
		c-0.2,0-0.5-0.2-0.5-0.5c0-0.2,0.2-0.5,0.5-0.5h4c0.2,0,0.5,0.2,0.5,0.5C28.2,26.8,28,27,27.7,27z M25.7,22h-2
		c-0.2,0-0.5-0.2-0.5-0.5c0-0.2,0.2-0.5,0.5-0.5h2c0.2,0,0.5,0.2,0.5,0.5C26.2,21.8,26,22,25.7,22z M29.6,57.2h-5.8
		c-0.2,0-0.5-0.2-0.5-0.5s0.2-0.5,0.5-0.5h5.8c0.2,0,0.5,0.2,0.5,0.5S29.8,57.2,29.6,57.2L29.6,57.2z M26.3,62.3h-2.6
		c-0.2,0-0.5-0.2-0.5-0.5s0.2-0.5,0.5-0.5h2.6c0.2,0,0.5,0.2,0.5,0.5S26.6,62.3,26.3,62.3L26.3,62.3z M27.7,52.2h-4
		c-0.2,0-0.5-0.2-0.5-0.5s0.2-0.5,0.5-0.5h4c0.2,0,0.5,0.2,0.5,0.5S28,52.2,27.7,52.2L27.7,52.2z M25.7,47.2h-2
		c-0.2,0-0.5-0.2-0.5-0.5s0.2-0.5,0.5-0.5h2c0.2,0,0.5,0.2,0.5,0.5S26,47.2,25.7,47.2z M66,6.3h-9.6c-0.2,0-0.5-0.2-0.5-0.5
		s0.2-0.5,0.5-0.5H66c0.2,0,0.5,0.2,0.5,0.5S66.3,6.3,66,6.3z M76.1,9.3h-9.6c-0.2,0-0.5-0.2-0.5-0.5c0-0.2,0.2-0.5,0.5-0.5
		c0,0,0,0,0,0h9.6c0.2,0,0.5,0.2,0.5,0.5C76.6,9.1,76.4,9.3,76.1,9.3C76.1,9.3,76.1,9.3,76.1,9.3z M64,9.3h-2.7
		c-0.2,0-0.5-0.2-0.5-0.5s0.2-0.5,0.5-0.5c0,0,0,0,0,0H64c0.2,0,0.5,0.2,0.5,0.5C64.5,9.1,64.3,9.3,64,9.3C64,9.3,64,9.3,64,9.3z
		 M36.3,12.8H23.7c-0.2,0-0.5-0.2-0.5-0.5c0-0.2,0.2-0.5,0.5-0.5h12.5c0.2,0,0.5,0.2,0.5,0.5C36.7,12.6,36.5,12.8,36.3,12.8
		C36.3,12.8,36.3,12.8,36.3,12.8z M41.5,12.8h-2.7c-0.2,0-0.5-0.2-0.5-0.5c0-0.2,0.2-0.5,0.5-0.5c0,0,0,0,0,0h2.7
		c0.2,0,0.5,0.2,0.5,0.5C41.9,12.6,41.7,12.8,41.5,12.8C41.5,12.8,41.5,12.8,41.5,12.8z"/>
	<path class="st7" d="M30.4,74.5c-0.8,0-1.6,0.2-2.3,0.6c0.1-3.1-2.3-5.8-5.5-5.9c-3.1-0.1-5.8,2.3-5.9,5.5c0,0.2,0,0.3,0,0.5v0.1
		c-2.4-1-5.2,0.2-6.2,2.6c-0.2,0.5-0.3,1.1-0.3,1.7h25.4C35.4,76.7,33.1,74.6,30.4,74.5z"/>
	<path d="M35.6,79.9H10.1c-0.2,0-0.5-0.2-0.5-0.5c0,0,0,0,0,0c0-2.9,2.4-5.1,5.2-5.1c0.4,0,0.9,0.1,1.3,0.2c0.3-3.4,3.3-5.9,6.7-5.5
		c2.9,0.3,5.2,2.5,5.5,5.4c0.6-0.2,1.3-0.3,1.9-0.3c3,0.1,5.4,2.4,5.6,5.3C36,79.7,35.9,79.9,35.6,79.9
		C35.6,79.9,35.6,79.9,35.6,79.9L35.6,79.9z M10.6,79h24.5c-0.4-2.3-2.4-3.9-4.7-4c-0.7,0-1.5,0.2-2.1,0.5c-0.2,0.1-0.5,0-0.6-0.2
		c0-0.1,0-0.1,0-0.2c0-2.9-2.4-5.3-5.3-5.3c-2.9,0-5.3,2.4-5.3,5.3v0.1c0,0.2-0.2,0.5-0.4,0.5c-0.1,0-0.1,0-0.2,0
		c-2.2-0.9-4.7,0.2-5.6,2.4C10.8,78.3,10.7,78.7,10.6,79L10.6,79z M18.7,77.8c-0.1,0-0.1,0-0.2,0c-0.7-0.3-1.5-0.4-2.2-0.3
		c-0.2,0-0.5-0.2-0.5-0.4c0-0.2,0.1-0.5,0.4-0.5c0.7-0.1,1.4-0.1,2.1,0.1c0-0.4,0.1-0.7,0.2-1.1c0.1-0.2,0.3-0.4,0.5-0.3
		s0.4,0.3,0.3,0.5c0,0,0,0,0,0c-0.1,0.4-0.2,0.9-0.2,1.4v0.1C19.1,77.6,18.9,77.8,18.7,77.8L18.7,77.8z M20.2,73.9
		c-0.2,0-0.4-0.2-0.4-0.5c0-0.1,0-0.2,0.1-0.3c0.8-0.8,1.8-1.5,2.9-1.8c0.2,0,0.5,0.1,0.5,0.4c0,0.2-0.1,0.4-0.3,0.5
		c-0.9,0.3-1.8,0.8-2.4,1.5C20.4,73.8,20.3,73.9,20.2,73.9z M38.8,79.9H2.4c-0.2,0-0.5-0.2-0.5-0.5c0-0.2,0.2-0.5,0.5-0.5h36.5
		c0.2,0,0.5,0.2,0.5,0.5C39.3,79.7,39.1,79.9,38.8,79.9L38.8,79.9z"/>
	<path class="st2" d="M73.9,52.8h10.8v14.6H73.9V52.8z"/>
	<path d="M84.6,67.8H73.9c-0.2,0-0.5-0.2-0.5-0.5V52.8c0-0.2,0.2-0.5,0.5-0.5h10.7c0.2,0,0.5,0.2,0.5,0.5v14.6
		C85.1,67.6,84.9,67.8,84.6,67.8z M74.3,66.9h9.8V53.2h-9.8V66.9z"/>
	<path class="st3" d="M72.2,50.2h14.4v2.6H72.2V50.2z"/>
	<path d="M86.6,53.2H72.2c-0.2,0-0.5-0.2-0.5-0.5v-2.6c0-0.2,0.2-0.5,0.5-0.5h14.4c0.2,0,0.5,0.2,0.5,0.5v2.6
		C87,53,86.8,53.2,86.6,53.2z M72.6,52.3h13.5v-1.7H72.6L72.6,52.3z M79.2,67.8c-0.2,0-0.5-0.2-0.5-0.5V52.8c0-0.2,0.2-0.5,0.5-0.5
		c0.2,0,0.5,0.2,0.5,0.5v14.6C79.7,67.6,79.5,67.8,79.2,67.8z M84.6,59.6H73.9c-0.2,0-0.5-0.2-0.5-0.5s0.2-0.5,0.5-0.5h10.7
		c0.2,0,0.5,0.2,0.5,0.5S84.9,59.6,84.6,59.6L84.6,59.6z"/>
	<path class="st4" d="M72,67.3h14.4v1.9H72V67.3z"/>
	<path d="M86.4,69.6H72c-0.2,0-0.5-0.2-0.5-0.5v-1.9c0-0.2,0.2-0.5,0.5-0.5h14.4c0.2,0,0.5,0.2,0.5,0.5v1.9
		C86.9,69.4,86.7,69.6,86.4,69.6z M72.5,68.7H86v-1H72.5V68.7z"/>
	<path class="st2" d="M54.1,52.8h10.8v14.6H54.1V52.8z"/>
	<path d="M64.9,67.8H54.2c-0.2,0-0.5-0.2-0.5-0.5V52.8c0-0.2,0.2-0.5,0.5-0.5l0,0h10.7c0.2,0,0.5,0.2,0.5,0.5v14.6
		C65.3,67.6,65.1,67.8,64.9,67.8z M54.6,66.9h9.8V53.2h-9.8L54.6,66.9z"/>
	<path class="st3" d="M52.4,50.2h14.4v2.6H52.4L52.4,50.2z"/>
	<path d="M66.8,53.2H52.4c-0.2,0-0.5-0.2-0.5-0.5l0,0v-2.6c0-0.2,0.2-0.5,0.5-0.5l0,0h14.4c0.2,0,0.5,0.2,0.5,0.5v2.6
		C67.3,53,67.1,53.2,66.8,53.2z M52.8,52.3h13.5v-1.7H52.8V52.3z M59.5,67.8c-0.2,0-0.5-0.2-0.5-0.5V52.8c0-0.2,0.2-0.5,0.5-0.5
		s0.5,0.2,0.5,0.5v14.6C59.9,67.6,59.7,67.8,59.5,67.8z M64.9,59.6H54.2c-0.2,0-0.5-0.2-0.5-0.5s0.2-0.5,0.5-0.5h10.7
		c0.2,0,0.5,0.2,0.5,0.5S65.1,59.6,64.9,59.6z"/>
	<path class="st4" d="M52.3,67.3h14.4v1.9H52.3V67.3z"/>
	<path d="M66.7,69.6H52.3c-0.2,0-0.5-0.2-0.5-0.5v-1.9c0-0.2,0.2-0.5,0.5-0.5h14.4c0.2,0,0.5,0.2,0.5,0.5v1.9
		C67.1,69.4,66.9,69.6,66.7,69.6z M52.7,68.7h13.5v-1H52.7V68.7z"/>
	<path class="st2" d="M32.4,52.8h10.8v14.6H32.4V52.8z"/>
	<path d="M43.1,67.8H32.4c-0.2,0-0.5-0.2-0.5-0.5V52.8c0-0.2,0.2-0.5,0.5-0.5l0,0h10.8c0.2,0,0.5,0.2,0.5,0.5l0,0v14.6
		C43.6,67.6,43.4,67.8,43.1,67.8z M32.8,66.9h9.8V53.2h-9.8V66.9z"/>
	<path class="st3" d="M30.7,50.2h14.4v2.6H30.7V50.2z"/>
	<path d="M45.1,53.2H30.7c-0.2,0-0.5-0.2-0.5-0.5l0,0v-2.6c0-0.2,0.2-0.5,0.5-0.5h0h14.4c0.2,0,0.5,0.2,0.5,0.5l0,0v2.6
		C45.5,53,45.3,53.2,45.1,53.2z M31.1,52.3h13.5v-1.7H31.1L31.1,52.3z M37.7,67.8c-0.2,0-0.5-0.2-0.5-0.5V52.8
		c0-0.2,0.2-0.5,0.5-0.5s0.5,0.2,0.5,0.5v14.6C38.2,67.6,38,67.8,37.7,67.8z M43.1,59.6H32.4c-0.2,0-0.5-0.2-0.5-0.5
		s0.2-0.5,0.5-0.5h10.8c0.2,0,0.5,0.2,0.5,0.5S43.4,59.6,43.1,59.6L43.1,59.6z"/>
	<path class="st4" d="M30.5,67.3H45v1.9H30.5V67.3z"/>
	<path d="M44.9,69.6H30.5c-0.2,0-0.5-0.2-0.5-0.5v-1.9c0-0.2,0.2-0.5,0.5-0.5h14.4c0.2,0,0.5,0.2,0.5,0.5v1.9
		C45.4,69.4,45.2,69.6,44.9,69.6z M31,68.7h13.5v-1H31L31,68.7z"/>
</g>
</svg>
