<?xml version="1.0" encoding="utf-8"?>
<!-- Generator: Adobe Illustrator 21.0.0, SVG Export Plug-In . SVG Version: 6.00 Build 0)  -->
<svg version="1.1" id="Layer_1" xmlns="http://www.w3.org/2000/svg" xmlns:xlink="http://www.w3.org/1999/xlink" x="0px" y="0px"
	 viewBox="0 0 100 80" style="enable-background:new 0 0 100 80;" xml:space="preserve">
<style type="text/css">
	.st0{fill:#494949;stroke:#000000;stroke-linecap:round;stroke-linejoin:round;}
	.st1{fill:#FFFFFF;stroke:#000000;stroke-miterlimit:10;}
	.st2{fill:#FFFFFF;stroke:#000000;stroke-linecap:round;stroke-linejoin:round;}
	.st3{fill:#FEB856;stroke:#000000;stroke-linecap:round;stroke-linejoin:round;}
	.st4{fill:#B74E4E;stroke:#000000;stroke-linecap:round;stroke-linejoin:round;}
	.st5{fill:#424242;stroke:#000000;stroke-linecap:round;stroke-linejoin:round;}
	.st6{fill:#85353A;stroke:#000000;stroke-linecap:round;stroke-linejoin:round;}
	.st7{fill:#F7E5A6;stroke:#000000;stroke-linecap:round;stroke-linejoin:round;}
	.st8{fill:#FE6067;stroke:#000000;stroke-linecap:round;stroke-linejoin:round;}
	.st9{fill:none;stroke:#000000;stroke-linecap:round;stroke-linejoin:round;}
	.st10{fill:#FFFEEE;stroke:#000000;stroke-linejoin:round;}
	.st11{fill:#FFFEEE;stroke:#000000;stroke-miterlimit:10;}
	.st12{fill:#FF7E36;stroke:#000000;stroke-linecap:round;stroke-miterlimit:10;}
	.st13{fill:none;stroke:#000000;stroke-linecap:round;stroke-miterlimit:10;}
</style>
<g id="Слой_1-2">
	<circle class="st0" cx="81.1" cy="61.9" r="8.5"/>
	<circle class="st1" cx="81.1" cy="61.9" r="5.7"/>
	<path class="st2" d="M78.5,61.9c0-1.4,1.2-2.6,2.6-2.6s2.6,1.2,2.6,2.6s-1.2,2.6-2.6,2.6l0,0C79.7,64.5,78.5,63.3,78.5,61.9z"/>
	<path class="st3" d="M69.6,61.2c0-6.8,3.8-12.3,10.6-12.3c3.9,0,7.5,1.8,9.8,4.9l-10.1,1.3L69.6,61.2z M75.8,35.4
		c-2.5,0-4.5-0.8-4.5-2.7c0-1.9,2-2.7,4.5-2.7V35.4z M76.2,50.1c-1.3-6.4-3.4-20.4-8.3-20.6c0,0-1.1,0.5,0.1,2.3
		c1.4,1.9,2.8,5.4,2.8,11.4c0,9.3-6.4,14-6.4,14H52.5c-3.3,0-0.4-11-0.4-11H37.3c-4.6,2.5-7.4,7.3-7.4,12.5c0,4,4,0,4,0v3.5h32.1
		C73.7,62.3,77.5,56.4,76.2,50.1z"/>
	<path class="st4" d="M34.3,44.2h19.1c0.3,0,0.5,0.2,0.5,0.5v3.1c0,0.3-0.2,0.5-0.5,0.5H34.3c-0.3,0-0.5-0.2-0.5-0.5v-3.1
		C33.8,44.4,34,44.2,34.3,44.2z"/>
	<circle class="st5" cx="40.6" cy="61.9" r="8.5"/>
	<circle class="st1" cx="40.6" cy="61.9" r="5.7"/>
	<path class="st2" d="M37.8,61.9c0-1.6,1.5-2.9,3.3-2.5c0.9,0.2,1.6,0.9,1.8,1.8c0.4,1.7-0.8,3.3-2.5,3.3l0,0
		C39,64.5,37.8,63.3,37.8,61.9C37.8,61.9,37.8,61.9,37.8,61.9z"/>
	<path class="st3" d="M29.6,62.2c0-6.5,4.9-11.7,11-11.7s11,5.2,11,11.7L29.6,62.2z"/>
	<path class="st6" d="M33.8,59.2h13 M34.8,56.2h11"/>
	<path class="st3" d="M64.8,30.1c0-1,0.8-1.8,1.8-1.8s1.8,0.8,1.8,1.8c0,1-0.8,1.8-1.8,1.8S64.8,31.1,64.8,30.1L64.8,30.1z"/>
	<path class="st7" d="M34.8,23.2h16v17h-16V23.2z M33.8,22.2h17v4h-17L33.8,22.2z"/>
	<path class="st1" d="M43.8,29.2h7v8h-7V29.2z"/>
	<path class="st8" d="M23.5,43.5l-2.6,11.7l-9,9.3l4.2,3.9l9.6-10.8L30,43.2C30,43.2,23.5,43.5,23.5,43.5z M40.5,51.5l-7.6-8.8
		l-1.8-15.1c-3.3,0.5-2.6,4.7-2.6,4.7l0.7,6.4l-4.6,0.5l-0.2-1.7l-1.8,0.3l0.8,6.4h0.3c2.6,4,10.4,8.1,11.8,9.4l1.8,15.6h6.2
		L40.5,51.5z"/>
	<path class="st9" d="M37.8,70.2h9 M10.6,66.2l5,5h4.2"/>
	<path class="st10" d="M44.7,32.3c-0.7,0-1.3,0.3-1.7,0.9l-7.1-1.9l-1.1,3.5l8.2,1c0.8,0.9,2.1,1.1,3.1,0.3c0.9-0.8,1.1-2.1,0.3-3.1
		C46,32.6,45.4,32.3,44.7,32.3z"/>
	<path class="st8" d="M31.8,32.7l2.9,2.2l1.1-3.5c-0.3-0.1-6.8-5.9-6.9-6.2c-0.9-1.6-2.8-2.4-4.5-1.9c-2.2,0.3-2.4,2.5-2.4,3.8
		c0.1,3.3,0.3,4.8,0.5,7.3l0.4,3.2l0.1,1.6l1.8-0.2l4.5-0.5l3.1-0.4"/>
	<path class="st9" d="M25.4,27.9l6.5,4.8"/>
	<path class="st11" d="M21.2,16.2c0-2.7,2.2-5.7,4.9-5.7s4.9,3,4.9,5.7c-0.1,2.7-2.4,4.8-5.2,4.7C23.3,20.8,21.3,18.7,21.2,16.2
		L21.2,16.2z"/>
	<path class="st12" d="M20.8,15.2h15"/>
	<path class="st4" d="M21.2,15.2c0,1,0.1,1.9,0.3,2.9c6.4-1.6,4.6-7.5,4.6-7.5C23.4,10.7,21.2,12.5,21.2,15.2z"/>
	<path class="st8" d="M30.8,12.6c0-1.9-1.4-3.4-3.1-3.5H24c-1.7,0-3.2,1.4-3.2,3.2l0,0.3v2.5h10V12.6z"/>
	<path class="st13" d="M21.8,13.2h-1"/>
</g>
</svg>
