<?xml version="1.0" encoding="utf-8"?>
<!-- Generator: Adobe Illustrator 21.0.0, SVG Export Plug-In . SVG Version: 6.00 Build 0)  -->
<svg version="1.1" id="Layer_1" xmlns="http://www.w3.org/2000/svg" xmlns:xlink="http://www.w3.org/1999/xlink" x="0px" y="0px"
	 viewBox="0 0 100 80" style="enable-background:new 0 0 100 80;" xml:space="preserve">
<style type="text/css">
	.st0{fill:#494949;stroke:#000000;stroke-linecap:round;stroke-linejoin:round;}
	.st1{fill:#FFFFFF;stroke:#000000;stroke-miterlimit:10;}
	.st2{fill:#FFFFFF;stroke:#000000;stroke-linecap:round;stroke-linejoin:round;}
	.st3{fill:#FEB856;stroke:#000000;stroke-linecap:round;stroke-linejoin:round;}
	.st4{fill:none;stroke:#000000;stroke-linecap:round;stroke-miterlimit:10;}
	.st5{fill:#FF7E36;stroke:#000000;stroke-linejoin:round;}
	.st6{fill:#FE6067;stroke:#000000;stroke-linecap:round;stroke-linejoin:round;}
	.st7{fill:#FFFEEE;stroke:#000000;stroke-linejoin:round;}
	.st8{fill:#FFFFFF;stroke:#85353A;stroke-linejoin:round;}
	.st9{fill:#F7E5A6;stroke:#000000;stroke-linecap:round;stroke-linejoin:round;}
	.st10{fill:#B74E4E;stroke:#000000;stroke-linecap:round;stroke-linejoin:round;}
	.st11{fill:#424242;stroke:#000000;stroke-linecap:round;stroke-linejoin:round;}
	.st12{fill:#85353A;stroke:#000000;stroke-linecap:round;stroke-linejoin:round;}
	.st13{fill:#FFFEEE;stroke:#000000;stroke-miterlimit:10;}
	.st14{fill:#FF7E36;stroke:#000000;stroke-linecap:round;stroke-miterlimit:10;}
	.st15{fill:#90CAF9;stroke:#000000;stroke-linejoin:round;}
</style>
<g id="Слой_1-2">
	<circle class="st0" cx="85.7" cy="64.1" r="9.4"/>
	<circle class="st1" cx="85.7" cy="64.1" r="6.3"/>
	<path class="st2" d="M82.8,64.1c0-1.6,1.3-2.8,2.8-2.8c1.6,0,2.8,1.3,2.8,2.8c0,1.6-1.3,2.8-2.8,2.8l0,0
		C84.1,66.9,82.8,65.7,82.8,64.1z"/>
	<path class="st3" d="M73,63.3c0-7.5,4.2-13.6,11.7-13.6c4.3,0,8.3,2,10.8,5.4l-11.2,1.4L73,63.3z"/>
	<path class="st4" d="M34,32.2V11.8"/>
	<path class="st5" d="M20.4,17.4v-3.7"/>
	<path class="st6" d="M17.8,10.2c0,0-4.9,0.1-6.6,0l3.4,3.5L11.2,18c0,0,7.6,0.5,8.6,0c1-0.5,0.3-1-1.1-2.1l-0.6-1.7
		c0.6-1.1,15.8,0,15.8,0V7.5c0,0-15.4-1.1-16.1,0v7.1"/>
	<path class="st3" d="M80.3,34.9c-2.8,0-5-0.9-5-3s2.2-3,5-3V34.9z"/>
	<path class="st6" d="M38.8,40.6c0,6,16.4,4,16.4,4L64.1,59l4.1-1.3l-8.4-16.2l-10.2-2.8"/>
	<path class="st7" d="M50.8,28h1.9l5.4,3l10.2-1.3v-2.4L59,27.1l-6.3-4.7"/>
	<path class="st6" d="M55.1,23.7c-1-1.1-2.2-2-3.5-2.7c-2.5-1.3-5.7-1.7-7.6,0.9c-3.8,5.4-5.1,15-5.1,18.7l10.7-1.9l1.6-10.3
		l1.5,0.8L55.1,23.7z"/>
	<path class="st8" d="M19.8,32.2h17.6v18.8H19.8L19.8,32.2z"/>
	<path class="st9" d="M19.8,32.2h17.6v18.8H19.8L19.8,32.2z M19.2,30.9H38v4.3H19.2V30.9z"/>
	<path class="st4" d="M8.8,56.2H16 M8,64.2h6.8 M4.7,61.5h4.1"/>
	<path class="st3" d="M80.3,51.1c-1.4-7-3.7-22.4-9.1-22.6c0,0-1.2,0.6,0.1,2.5c1.5,2.1,3.1,5.9,3.1,12.5c0,10.3-0.8,16.1-7,16.1H56
		c-3.8,0-0.5-12.8-0.5-12.8H38.2c-5.3,3-8.6,8.5-8.7,14.6c0,4.6,4.6,0,4.6,0v3.2H69C77.5,64.6,81.7,58.1,80.3,51.1z"/>
	<path class="st10" d="M34.3,44.6h21.3c0.3,0,0.5,0.2,0.5,0.5v3.2c0,0.3-0.2,0.5-0.5,0.5H34.3c-0.3,0-0.5-0.2-0.5-0.5v-3.2
		C33.7,44.8,34,44.6,34.3,44.6z"/>
	<circle class="st11" cx="41.2" cy="64.1" r="9.4"/>
	<circle class="st1" cx="41.2" cy="64.1" r="6.3"/>
	<path class="st2" d="M38.3,64.1c0-1.6,1.3-2.8,2.8-2.8c1.6,0,2.8,1.3,2.8,2.8c0,1.6-1.3,2.8-2.8,2.8C39.6,66.9,38.3,65.7,38.3,64.1
		C38.3,64.1,38.3,64.1,38.3,64.1z"/>
	<path class="st3" d="M29,64.4c0-7.1,5.4-12.8,12.1-12.8s12.1,5.8,12.1,12.8H29z"/>
	<path class="st12" d="M33.6,61.2h14.9 M35.2,58.2h11.9"/>
	<path class="st13" d="M46.3,13.2c0-3,2.4-6.2,5.4-6.2s5.4,3.2,5.4,6.2c0,3-2.4,5.4-5.4,5.4S46.3,16.1,46.3,13.2L46.3,13.2z"/>
	<path class="st14" d="M46.1,11.9l15.7-1.5"/>
	<path class="st10" d="M46.3,11.9c0,1.1,0.1,2.1,0.3,3.2c7-1.8,5-8.1,5-8.1C48.7,6.9,46.3,8.9,46.3,11.9z"/>
	<path class="st6" d="M56.9,8.3C56.7,6.4,55,5,53.2,5.2L49,5.6c-1.9,0.2-3.3,1.9-3.1,3.8c0,0,0,0,0,0l0.2,2.6l11-1.1L56.9,8.3
		L56.9,8.3z"/>
	<path class="st4" d="M47.3,9.6L46,9.7"/>
	<path class="st13" d="M67.7,29.1c0-1.1,0.9-1.9,1.9-1.9s1.9,0.9,1.9,1.9c0,1.1-0.9,1.9-1.9,1.9S67.7,30.2,67.7,29.1L67.7,29.1z"/>
	<path class="st15" d="M48.3,26.7l2.9,1.7"/>
	<path class="st1" d="M19.8,38h7.4v9.1h-7.4V38z"/>
</g>
</svg>
